<svg width="322" height="111" viewBox="0 0 322 111" fill="none" xmlns="http://www.w3.org/2000/svg">
<path d="M84.75 63.75C84.6667 63.0833 84.625 62.2083 84.625 61.125C84.7083 60.0417 84.75 59.25 84.75 58.75C84.75 58.5 84.7917 58.25 84.875 58C85.125 55.9167 85.25 54.8333 85.25 54.75C85.3333 54.5 85.375 54.0833 85.375 53.5C85.5417 52 85.625 49.125 85.625 44.875C85.625 44.7083 85.7083 43.9167 85.875 42.5C85.875 41.8333 85.875 41.4583 85.875 41.375C85.875 40.7917 85.9167 40.1667 86 39.5C86 39.25 86 38.9583 86 38.625C86 38.2083 86.0417 37.9167 86.125 37.75C86.125 37.1667 86.1667 35.0417 86.25 31.375C86.25 31.125 86.25 30.7917 86.25 30.375C86.3333 29.875 86.375 29.5 86.375 29.25C86.375 28.75 86.3333 28.4583 86.25 28.375C86.1667 28.2917 85.9167 28.25 85.5 28.25C84.3333 28.25 83.5 28.25 83 28.25C82.0833 28.3333 80.75 28.25 79 28C78.8333 28 78.5833 28 78.25 28C76.5833 28 75 27.9167 73.5 27.75C73.1667 27.75 72.75 27.75 72.25 27.75C71.75 27.6667 71.4167 27.625 71.25 27.625C69.9167 27.4583 68.9167 27.3333 68.25 27.25C67.4167 27.1667 66.6667 27.125 66 27.125C65.6667 27.125 65.125 27.125 64.375 27.125C63.7083 27.0417 63.2917 27 63.125 27C62.7083 27 62.0833 27.0417 61.25 27.125C60.5 27.125 60 27.125 59.75 27.125C58.3333 27.125 57.375 27.125 56.875 27.125C55.7083 27.0417 54.7083 26.875 53.875 26.625C53.7917 26.625 53.625 26.5833 53.375 26.5C53.2083 26.4167 53.0417 26.375 52.875 26.375C52.625 26.2917 52.3333 26.2917 52 26.375C51.75 26.375 51.3333 26.375 50.75 26.375C50.4167 26.375 50.1667 26.5417 50 26.875C49.8333 27.4583 49.6667 27.9583 49.5 28.375C49.1667 29.125 48.8333 29.7083 48.5 30.125C48.3333 30.2917 48.0833 30.625 47.75 31.125C47.4167 31.5417 47.125 31.875 46.875 32.125C46.625 32.4583 46.25 33 45.75 33.75C45.5 34.1667 45.25 34.5 45 34.75C44.75 34.9167 43.8333 35.7917 42.25 37.375C42.1667 37.4583 42.0833 37.5833 42 37.75C41.75 38.0833 41.5 38.3333 41.25 38.5C41.1667 38.5833 41 38.7083 40.75 38.875C40.0833 39.625 39.2083 40.2917 38.125 40.875C37.875 41.0417 37.6667 41.2083 37.5 41.375C36.5 42.7083 35.5 43.75 34.5 44.5C34.5 44.5833 34.3333 44.75 34 45C33.4167 45.5833 32.875 46 32.375 46.25C31.875 46.5 31.4583 46.8333 31.125 47.25C30.9583 47.5 30.5417 47.8333 29.875 48.25C29.875 48.25 29.8333 48.2917 29.75 48.375C29.6667 48.375 29.5833 48.375 29.5 48.375C29.1667 48.625 28.875 48.625 28.625 48.375C28.5417 48.375 28.375 48.375 28.125 48.375C28.125 48.375 28.0417 48.375 27.875 48.375C27.7917 48.2917 27.75 48.25 27.75 48.25C27.5 48.1667 27.3333 48.125 27.25 48.125C27.1667 48.0417 27.125 47.9583 27.125 47.875C27.2083 47.7083 27.25 47.5833 27.25 47.5C27.0833 46.9167 27.2917 46.5417 27.875 46.375C27.9583 46.375 28.1667 46.25 28.5 46C28.6667 45.8333 28.7917 45.75 28.875 45.75C29.375 45.5 29.7917 45.0833 30.125 44.5C30.2083 44.3333 30.2917 44.25 30.375 44.25C30.4583 44.1667 31.2083 43.4167 32.625 42C32.875 41.75 33.3333 41.0833 34 40C35.0833 38.3333 35.7083 37.375 35.875 37.125C35.9583 37.0417 36.0417 36.9583 36.125 36.875C36.2083 36.7083 36.4583 36.0833 36.875 35C37.375 33.9167 37.75 33.125 38 32.625C38.0833 32.375 38.2083 32.125 38.375 31.875C38.625 31.5417 38.75 31.3333 38.75 31.25C39.0833 30.5833 39.2917 30.0833 39.375 29.75C39.375 29.6667 39.4583 29.5 39.625 29.25C39.875 28.8333 40.5 27.4167 41.5 25C41.9167 23.9167 42.25 22.5833 42.5 21C42.75 19.6667 43.1667 18.0417 43.75 16.125C43.8333 15.7083 44.1667 14.375 44.75 12.125C44.8333 11.7917 44.9167 11.375 45 10.875C45.0833 10.375 45.1667 10.0417 45.25 9.875C45.3333 9.29167 45.3333 8.83333 45.25 8.5C45.1667 8.33333 45.1667 8.04167 45.25 7.625C45.5 6.29167 45.75 5.08333 46 4C46.0833 3.66667 46.125 3.375 46.125 3.125C46.2083 2.54167 46.3333 2.125 46.5 1.875C46.5833 1.79167 46.625 1.66667 46.625 1.5C46.625 1.33333 46.625 1.25 46.625 1.25C46.7083 0.833333 46.9167 0.708333 47.25 0.875C47.75 1.125 48.3333 1.16667 49 1C49.4167 1 49.75 1.16667 50 1.5C50.5 2.25 51.125 2.91667 51.875 3.5C51.9583 3.58333 52.125 3.79167 52.375 4.125C52.7083 4.625 53.1667 5.08333 53.75 5.5C55 6.33333 55.875 6.875 56.375 7.125C56.5417 7.20833 56.7917 7.41667 57.125 7.75C57.875 8.41667 58.5417 8.83333 59.125 9C59.4583 9.25 59.625 9.54167 59.625 9.875C59.625 10.2083 59.75 10.5833 60 11C60.0833 11.0833 60.125 11.2083 60.125 11.375C60.2083 11.5417 60.1667 11.6667 60 11.75C59.9167 11.75 59.8333 11.7917 59.75 11.875C58.6667 12.2917 57.6667 12.5417 56.75 12.625C56.5 12.7083 55.875 12.8333 54.875 13C54.625 13.0833 54.4167 13.2917 54.25 13.625C53.75 15.2083 53.4167 16.1667 53.25 16.5C53.0833 16.9167 52.75 17.9583 52.25 19.625C52.0833 20.125 51.8333 20.7917 51.5 21.625C51.4167 21.875 51.3333 22.2083 51.25 22.625C51.25 22.875 51.375 23.0417 51.625 23.125C51.7083 23.125 52.6667 23.2917 54.5 23.625C54.6667 23.7083 54.875 23.75 55.125 23.75C57.4583 23.75 58.9167 23.7083 59.5 23.625C59.5833 23.625 59.7083 23.6667 59.875 23.75C60.125 23.75 60.2917 23.75 60.375 23.75C62.4583 23.75 63.7917 23.75 64.375 23.75C65.2083 23.75 66.0833 23.7917 67 23.875C67.1667 23.9583 67.8333 24.0417 69 24.125C69.4167 24.2083 70.7083 24.3333 72.875 24.5C72.9583 24.5833 73 24.625 73 24.625C75 24.7083 76.125 24.75 76.375 24.75C77.375 24.75 78.1667 24.7917 78.75 24.875C79 24.875 79.8333 24.875 81.25 24.875C81.25 24.875 81.5833 24.875 82.25 24.875H83.25C83.75 24.875 84.125 24.9583 84.375 25.125C84.4583 25.125 84.5833 25.1667 84.75 25.25C85.0833 25.25 85.25 25.0833 85.25 24.75C85.5 24.1667 85.875 23.2917 86.375 22.125C86.375 22.0417 86.4167 21.8333 86.5 21.5C86.6667 20.75 86.9167 20.2083 87.25 19.875C87.3333 19.7917 87.375 19.625 87.375 19.375C87.4583 19.2917 87.5 19.25 87.5 19.25C87.6667 19 87.8333 18.9167 88 19C88.5833 19.25 89.25 19.3333 90 19.25C90.4167 19.1667 90.6667 19.3333 90.75 19.75C90.9167 20.5 91.375 21.1667 92.125 21.75C92.375 21.9167 92.6667 22.2083 93 22.625C93.4167 22.9583 93.75 23.2083 94 23.375C94.5833 23.875 95.0417 24.2083 95.375 24.375C96.0417 24.7083 96.75 25.1667 97.5 25.75C97.5 25.75 97.5417 25.7917 97.625 25.875C97.7083 25.875 97.75 25.875 97.75 25.875C98.3333 26.375 99.0417 26.7083 99.875 26.875C100.125 26.9583 100.292 27.0417 100.375 27.125C100.708 27.2083 100.875 27.4167 100.875 27.75C100.958 28.25 101.125 28.7083 101.375 29.125C101.375 29.2083 101.417 29.2917 101.5 29.375C101.583 29.625 101.542 29.8333 101.375 30C101.208 30.0833 101.083 30.1667 101 30.25C99.1667 31.1667 98.0417 31.7083 97.625 31.875C97.4583 31.9583 97.0833 32.125 96.5 32.375C96 32.625 95.5833 32.8333 95.25 33C95 33.0833 94.875 33.2917 94.875 33.625C94.875 33.625 94.875 33.7083 94.875 33.875C94.9583 33.9583 95 34.0417 95 34.125C95 34.625 95 34.9167 95 35C94.8333 37.25 94.75 38.6667 94.75 39.25C94.5833 40.3333 94.5417 42.1667 94.625 44.75C94.625 44.9167 94.6667 45.7917 94.75 47.375C94.75 47.4583 94.75 47.625 94.75 47.875C94.8333 48.0417 94.875 48.1667 94.875 48.25C94.875 48.75 94.9167 51.6667 95 57C95 57.0833 95 57.2917 95 57.625C94.9167 58.0417 94.8333 58.7083 94.75 59.625C94.6667 60.4583 94.5833 61.0833 94.5 61.5C94.5 61.8333 94.4583 62.375 94.375 63.125C94.375 63.7917 94.375 64.3333 94.375 64.75C94.2917 65.0833 94.25 65.5 94.25 66C94.25 66.5 94.25 66.9167 94.25 67.25C94.25 67.75 94.2083 68.4167 94.125 69.25C94.0417 70 94 70.4583 94 70.625C94 70.7083 94 71.0833 94 71.75C93.9167 73.4167 93.75 75.375 93.5 77.625C93.5 77.9583 93.4167 78.7917 93.25 80.125C93.0833 81.375 93 82.4583 93 83.375C93 84.125 93 85.25 93 86.75C93 87.0833 93.0417 87.4583 93.125 87.875C93.9583 90.2083 94.4167 91.9167 94.5 93C94.5 93.4167 94.5417 93.75 94.625 94C95.0417 95 95.25 96 95.25 97C95.25 97.4167 95.375 98.25 95.625 99.5C95.875 100.917 96.0417 102 96.125 102.75C96.2083 103.25 96.0417 103.625 95.625 103.875C95.2917 103.958 95.0833 104.042 95 104.125C94.75 104.125 94.4583 104.208 94.125 104.375C93.7917 104.542 93.5417 104.625 93.375 104.625C93.125 104.708 92.7083 104.833 92.125 105C91.5417 105.25 91.125 105.417 90.875 105.5C90.625 105.583 90.125 105.792 89.375 106.125C88.375 106.625 87.7083 106.917 87.375 107C87.2083 107.083 86.9583 107.208 86.625 107.375C85.9583 107.792 85.4167 108.083 85 108.25C84.6667 108.333 84.2083 108.458 83.625 108.625C83.125 108.875 82.75 109.042 82.5 109.125C82 109.292 81.2917 109.5 80.375 109.75C79.5417 110 79 110.167 78.75 110.25C78.4167 110.333 78.125 110.417 77.875 110.5C77.7083 110.5 77.5 110.542 77.25 110.625C76.75 110.708 76.375 110.75 76.125 110.75C76.0417 110.667 75.8333 110.667 75.5 110.75C75.1667 110.833 74.9167 110.792 74.75 110.625C74.75 110.542 74.7083 110.5 74.625 110.5C74.2917 110.333 73.8333 109.708 73.25 108.625C73.1667 108.458 73.125 108.25 73.125 108C73.2083 107.833 73.25 107.458 73.25 106.875C73.25 106.292 73.2917 105.875 73.375 105.625C73.375 105.458 73.375 105.333 73.375 105.25C73.2917 104.417 73.4167 103.167 73.75 101.5C73.75 101.167 73.7917 100.583 73.875 99.75C73.875 99.4167 73.75 99.25 73.5 99.25C72.1667 99.0833 71.0417 99.0833 70.125 99.25C69.2083 99.3333 68.4583 99.2083 67.875 98.875C67.7083 98.7917 67.5833 98.75 67.5 98.75C67 98.6667 66.4583 98.375 65.875 97.875C65.7083 97.7083 65.5833 97.5833 65.5 97.5C65.1667 96.75 65 96.3333 65 96.25C64.8333 95.9167 64.9167 95.75 65.25 95.75C65.5 95.75 65.7917 95.75 66.125 95.75C66.7917 95.8333 67.4167 95.9167 68 96C68.4167 96.0833 68.75 96.0833 69 96C69.1667 96 69.375 96.0417 69.625 96.125C69.9583 96.125 70.2083 96.125 70.375 96.125C70.7083 96.125 71.0417 96.125 71.375 96.125C71.7917 96.125 72.2083 96.125 72.625 96.125C73.125 96.125 73.5 96.125 73.75 96.125C75 96.125 75.75 96.1667 76 96.25C76.25 96.25 76.4583 96.25 76.625 96.25C77.625 96.1667 78.75 96.2083 80 96.375C80.8333 96.5417 81.3333 96.625 81.5 96.625C81.75 96.625 81.9167 96.625 82 96.625C82.25 96.5417 82.4167 96.4167 82.5 96.25C82.5 96.1667 82.5 96.125 82.5 96.125C82.8333 94.375 83 93.4167 83 93.25C83 93.0833 83.0417 92.5833 83.125 91.75C83.2083 90.8333 83.2917 90.125 83.375 89.625C83.5417 88.5417 83.625 87.4583 83.625 86.375C83.625 86.2083 83.625 85.9167 83.625 85.5C83.625 85.0833 83.625 84.7917 83.625 84.625C83.625 84.2083 83.625 83.6667 83.625 83C83.7083 82.3333 83.75 81.8333 83.75 81.5C83.6667 80.0833 83.8333 78.5 84.25 76.75C84.3333 76.4167 84.375 76 84.375 75.5C84.2917 74.5833 84.2917 73.875 84.375 73.375C84.4583 72.875 84.5 72.2917 84.5 71.625C84.6667 68.125 84.75 66.2917 84.75 66.125C84.75 65.9583 84.75 65.1667 84.75 63.75ZM90.375 43.625C90.2917 43.7083 90.2083 43.8333 90.125 44C90.125 44.1667 90.125 44.25 90.125 44.25C90.0417 44.4167 89.9583 44.625 89.875 44.875C89.7917 45.375 89.75 46.6667 89.75 48.75C89.75 48.9167 89.7917 49.0417 89.875 49.125C89.9583 49.125 90 49.125 90 49.125C90.0833 49.125 90.125 49.125 90.125 49.125C90.2083 49.0417 90.25 48.9167 90.25 48.75C90.25 48.75 90.25 48.5833 90.25 48.25C90.3333 47.9167 90.4167 47.7083 90.5 47.625C90.5833 47.125 90.625 46.5 90.625 45.75C90.625 45.3333 90.625 45.0417 90.625 44.875C90.5417 44.375 90.4583 43.9583 90.375 43.625ZM84.625 102.125C84.375 101.792 84.25 101.625 84.25 101.625C84.0833 101.458 83.9167 101.417 83.75 101.5C83.3333 101.667 83.0833 101.75 83 101.75C82.9167 101.75 82.75 101.708 82.5 101.625C82.3333 101.625 82.25 101.625 82.25 101.625C82.0833 101.875 82 102.25 82 102.75C82 103 82.125 103.083 82.375 103C82.7917 102.833 83.25 102.667 83.75 102.5C83.75 102.5 83.8333 102.458 84 102.375C84.25 102.292 84.4583 102.208 84.625 102.125ZM48.625 14.25C48.7083 14.0833 49.1667 13.25 50 11.75C50 11.6667 50 11.5417 50 11.375C50 11.2917 49.9583 11.25 49.875 11.25C49.7917 11.1667 49.75 11.1667 49.75 11.25C49.25 11.5833 49 11.875 49 12.125C48.9167 12.2083 48.7917 12.9167 48.625 14.25ZM89.875 27.875C89.875 27.7083 89.875 27.5833 89.875 27.5C89.875 26.4167 89.9167 25.7083 90 25.375C90 25.2083 90 25 90 24.75C90 24.6667 89.9583 24.625 89.875 24.625C89.875 24.5417 89.8333 24.5417 89.75 24.625C89.3333 25.375 89.25 26.0833 89.5 26.75C89.6667 27.25 89.7917 27.625 89.875 27.875ZM89.375 71.125C89.375 71.0417 89.375 71 89.375 71C89.4583 69.25 89.5 68.375 89.5 68.375C89.5 68.2917 89.5 68.125 89.5 67.875C89.5 67.7917 89.4583 67.7083 89.375 67.625C89.375 67.5417 89.3333 67.5 89.25 67.5C89.0833 67.5 89 67.625 89 67.875C89 69.125 89.125 70.2083 89.375 71.125ZM90.5 95.5C90.25 96.1667 90.25 96.7917 90.5 97.375C90.5833 97.375 90.625 97.375 90.625 97.375C90.7083 97.375 90.75 97.3333 90.75 97.25C90.9167 96.5833 90.8333 96 90.5 95.5ZM88.125 88.125C88.2917 87.125 88.375 86.625 88.375 86.625C88.375 86.2917 88.25 86 88 85.75C88 86.5 88.0417 87.2917 88.125 88.125ZM46.875 22.25C47.0417 21.6667 47.125 21.375 47.125 21.375C47.2917 20.875 47.375 20.5417 47.375 20.375H47.25C47.1667 20.375 47.125 20.375 47.125 20.375C46.875 21.0417 46.7917 21.6667 46.875 22.25ZM50 6C49.9167 6.08333 49.875 6.16667 49.875 6.25C49.875 6.33333 49.9167 6.41667 50 6.5C50.0833 6.58333 50.1667 6.58333 50.25 6.5C50.4167 6.41667 50.4583 6.33333 50.375 6.25C50.2917 6.16667 50.2083 6.08333 50.125 6C50.125 6 50.0833 6 50 6ZM58.125 86.5C58.125 86.5 58.2917 86.5 58.625 86.5C59.0417 86.4167 59.375 86.3333 59.625 86.25C59.9583 86.25 60.5 86.2083 61.25 86.125C62 85.9583 62.5417 85.875 62.875 85.875C63.2917 85.7917 63.5833 85.75 63.75 85.75C64.3333 85.75 65.2083 85.5833 66.375 85.25C66.5417 85.1667 66.75 85.0833 67 85C67.3333 84.9167 67.5833 84.8333 67.75 84.75C68 84.6667 68.125 84.5 68.125 84.25C68.125 83.6667 68.0833 82.9167 68 82C68 81.8333 67.9583 81.7083 67.875 81.625C67.7083 81.2917 67.6667 80.7917 67.75 80.125C67.75 80.0417 67.75 79.4583 67.75 78.375C67.8333 77.0417 67.875 76.1667 67.875 75.75C67.9583 75.3333 67.9583 74.9167 67.875 74.5C67.875 74.1667 67.875 73.7917 67.875 73.375C67.875 72.375 67.8333 71.5 67.75 70.75C67.75 70.25 67.7083 69.875 67.625 69.625C67.625 69.5417 67.625 69.4167 67.625 69.25C67.625 68.8333 67.8333 68.7083 68.25 68.875C68.5833 68.9583 68.9167 69 69.25 69C69.5 69 69.75 69 70 69C70.3333 68.9167 70.625 69 70.875 69.25C71.0417 69.4167 71.2917 69.6667 71.625 70C72.0417 70.3333 72.3333 70.5833 72.5 70.75C73.1667 71.4167 73.9167 72.0417 74.75 72.625C76.4167 73.7917 77.375 74.5 77.625 74.75C77.7917 74.8333 78 74.9583 78.25 75.125C78.6667 75.375 78.9583 75.5417 79.125 75.625C79.625 75.7917 79.875 76.125 79.875 76.625C79.9583 76.9583 80.0833 77.2917 80.25 77.625C80.3333 77.7083 80.375 77.8333 80.375 78C80.4583 78.1667 80.4167 78.2917 80.25 78.375C80.1667 78.4583 80.0417 78.5417 79.875 78.625C78.4583 79.125 77.2917 79.4583 76.375 79.625C76.2917 79.7083 76.1667 79.7917 76 79.875C75.8333 79.875 75.75 79.9583 75.75 80.125C75.75 80.2083 75.75 80.2917 75.75 80.375C75.75 81.2917 75.8333 82.0417 76 82.625C76.0833 82.7917 76.125 83.0417 76.125 83.375C76.125 83.375 76.125 83.5417 76.125 83.875C76.2083 84.125 76.25 84.3333 76.25 84.5C76.3333 85.25 76.6667 85.8333 77.25 86.25C77.5833 86.5 77.875 86.7917 78.125 87.125C78.2083 87.2083 78.25 87.3333 78.25 87.5C78.3333 87.9167 78.5 88.3333 78.75 88.75C78.9167 89.1667 78.7917 89.5 78.375 89.75C77.7083 90 77.2917 90.1667 77.125 90.25C76.9583 90.25 76.75 90.3333 76.5 90.5C76.3333 90.5833 75.9583 90.75 75.375 91C74.7917 91.25 74.3333 91.4583 74 91.625C73.5833 91.7917 72.625 92.2917 71.125 93.125C70.875 93.2917 70.6667 93.375 70.5 93.375C69.3333 93.625 68.5833 93.7917 68.25 93.875C67.9167 93.9583 67.6667 93.875 67.5 93.625C67.4167 93.5417 67.2917 93.4583 67.125 93.375C66.7917 93.2083 66.5 92.9167 66.25 92.5C66.25 92.3333 66.125 92.0833 65.875 91.75C65.5417 91.3333 65.4583 90.9167 65.625 90.5C65.625 90.4167 65.625 90.375 65.625 90.375C65.7917 89.7917 65.8333 89.4583 65.75 89.375C65.6667 89.2917 65.375 89.2917 64.875 89.375C62.375 89.625 61.125 89.75 61.125 89.75C60.9583 89.75 60.1667 89.8333 58.75 90C58.5 90 58.375 90 58.375 90C57.9583 90 57.375 90.0417 56.625 90.125C55.875 90.125 55.4583 90.1667 55.375 90.25C54.5417 90.25 53.5 90.375 52.25 90.625C52.25 90.625 51.5 90.7083 50 90.875C49.75 90.875 49.375 90.9167 48.875 91C48.375 91.0833 48.0417 91.125 47.875 91.125C47.5417 91.2083 47.2917 91.25 47.125 91.25C46.4583 91.25 46 91.25 45.75 91.25C45.5 91.1667 44.9167 91.2917 44 91.625C43.9167 91.7083 43.8333 91.8333 43.75 92C43.75 92.1667 43.7917 92.3333 43.875 92.5C44.0417 93 43.9167 93.375 43.5 93.625C43.5 93.625 43.4583 93.625 43.375 93.625C43.375 93.625 43.375 93.6667 43.375 93.75C42.9583 93.9167 42.375 94.2917 41.625 94.875C40.9583 95.375 40.5417 95.6667 40.375 95.75C39.9583 96 39.5417 96.25 39.125 96.5C38.125 96.9167 37.5 97.1667 37.25 97.25C37 97.25 36.8333 97.3333 36.75 97.5C36.5 97.8333 36.25 97.9167 36 97.75C35.75 97.5833 35.5417 97.5833 35.375 97.75C35.375 97.8333 35.2917 97.9167 35.125 98C34.9583 98.1667 34.75 98.1667 34.5 98C34.25 97.8333 34.125 97.75 34.125 97.75C33.7917 97.5833 33.5 97.25 33.25 96.75C33.1667 96.5 33 96.25 32.75 96C32.5833 95.75 32.5417 95.5 32.625 95.25C32.7083 94.5833 32.8333 93.875 33 93.125C33.1667 92.5417 33.25 92 33.25 91.5C33.25 90.5 33.4167 88.875 33.75 86.625C34 84.875 34.1667 83.7083 34.25 83.125C34.3333 82.4583 34.2917 81.625 34.125 80.625C34.125 80.2917 34.125 80 34.125 79.75C34.125 79.5 34.125 78.125 34.125 75.625C34.125 75.4583 34.125 75.3333 34.125 75.25C34.2083 74.75 34.25 74.0833 34.25 73.25C34.25 72.3333 34.25 71.7917 34.25 71.625C34.25 71.625 34.25 71.5833 34.25 71.5C34.25 71.4167 34.25 71.3333 34.25 71.25C34.25 71 34.375 70.9167 34.625 71C35.125 71.25 35.7083 71.3333 36.375 71.25C36.625 71.1667 36.8333 71.2083 37 71.375C37.4167 71.875 37.6667 72.1667 37.75 72.25C38.0833 72.75 38.5833 73.125 39.25 73.375C39.5833 73.4583 39.75 73.5417 39.75 73.625C40 73.7083 40.5417 74.0417 41.375 74.625C42.2083 75.125 42.8333 75.5833 43.25 76C43.6667 76.3333 43.9167 76.6667 44 77C44 77.25 44.125 77.5833 44.375 78C44.5417 78.4167 44.4583 78.7083 44.125 78.875C43.875 78.9583 43.5 79.125 43 79.375C42.75 79.4583 42.5 79.5417 42.25 79.625C41.9167 79.7083 41.75 79.9583 41.75 80.375C41.75 80.9583 41.7083 81.7917 41.625 82.875C41.5417 83.9583 41.5 84.5833 41.5 84.75C41.5 85.0833 41.4583 85.9167 41.375 87.25C41.375 87.3333 41.375 87.4583 41.375 87.625C41.4583 87.7917 41.5833 87.9167 41.75 88C41.9167 88 42.0833 88 42.25 88C43.25 88 44.125 88 44.875 88C45.125 88 45.3333 87.9583 45.5 87.875C45.9167 87.7917 47.2917 87.625 49.625 87.375C49.875 87.375 50 87.3333 50 87.25C50.75 87.0833 51.4583 86.9583 52.125 86.875C52.375 86.875 52.4583 86.7917 52.375 86.625C52.2917 86.4583 52.2083 86.3333 52.125 86.25C51.9583 86 51.9167 85.75 52 85.5C52 85.4167 52 85.2917 52 85.125C51.8333 84.5417 51.8333 83.625 52 82.375C52 82.0417 52.0417 81.4583 52.125 80.625C52.125 79.0417 52.25 77.4583 52.5 75.875C52.75 73.875 52.875 72.2917 52.875 71.125C52.7917 70.2083 52.8333 68.9167 53 67.25C53.0833 67 53.0833 66.6667 53 66.25C53 66 52.875 65.875 52.625 65.875C52.5417 65.875 52.375 65.875 52.125 65.875C50.0417 65.875 48.9583 65.875 48.875 65.875C48.2917 65.7917 46.7083 65.8333 44.125 66C43.875 66 43.4583 66.0417 42.875 66.125C42.375 66.125 42.0417 66.1667 41.875 66.25C41.7083 66.25 41.4167 66.25 41 66.25C39.9167 66.25 39.1667 66.2917 38.75 66.375C38.5833 66.375 38.375 66.375 38.125 66.375C37.625 66.375 37.2917 66.5417 37.125 66.875C36.9583 67.2083 36.625 67.5833 36.125 68C36.0417 68.0833 35.9583 68.1667 35.875 68.25C35.625 68.4167 35.375 68.4583 35.125 68.375C34.9583 68.2917 34.875 68.375 34.875 68.625C34.875 68.9583 34.8333 69.1667 34.75 69.25C34.6667 69.25 34.5 69.2083 34.25 69.125C34.0833 69.0417 33.9167 69.0417 33.75 69.125C33.75 69.125 33.7083 69.1667 33.625 69.25C33.625 69.3333 33.5833 69.375 33.5 69.375C33.3333 69.4583 33.1667 69.4583 33 69.375C32.8333 69.2917 32.75 69.25 32.75 69.25C32.25 69 31.875 68.625 31.625 68.125C31.625 68.0417 31.5833 67.9167 31.5 67.75C31.4167 67.5833 31.3333 67.5 31.25 67.5C31.0833 67.0833 31 66.8333 31 66.75C30.8333 66.1667 30.5 65.25 30 64C30 63.9167 29.9583 63.8333 29.875 63.75C29.875 63.5833 29.9583 63.4583 30.125 63.375C30.2917 63.2917 30.4167 63.25 30.5 63.25C30.8333 63.25 31.3333 63.25 32 63.25C32.6667 63.1667 33.125 63.125 33.375 63.125C33.625 63.125 33.8333 63.1667 34 63.25C34.4167 63.3333 34.8333 63.3333 35.25 63.25C35.4167 63.25 35.7083 63.25 36.125 63.25C36.5417 63.1667 36.875 63.0833 37.125 63C37.7917 63 38.2917 63 38.625 63C38.9583 63 39.4583 62.9583 40.125 62.875C40.7917 62.7917 41.25 62.75 41.5 62.75C41.6667 62.75 41.8333 62.75 42 62.75C42.1667 62.75 42.2917 62.7083 42.375 62.625C43.4583 62.625 46.4167 62.5833 51.25 62.5C51.8333 62.5 52.25 62.5 52.5 62.5C52.8333 62.4167 53.0417 62.2083 53.125 61.875C53.125 61.5417 53.125 61.25 53.125 61C53.0417 59.5833 53.125 58.125 53.375 56.625C53.375 56.5417 53.375 56.3333 53.375 56C53.375 52.5833 53.375 50.0833 53.375 48.5C53.375 48.1667 53.375 47.9583 53.375 47.875C53.375 47.625 53.25 47.5 53 47.5C52.75 47.4167 52.2917 47.375 51.625 47.375C51.4583 47.375 51.2917 47.5 51.125 47.75C51.125 47.75 51.0417 47.875 50.875 48.125C50.7917 48.2917 50.7083 48.4167 50.625 48.5C50.4583 48.75 50.2083 49 49.875 49.25C49.2917 49.5833 48.75 50 48.25 50.5C48.0833 50.6667 47.9167 50.7917 47.75 50.875C47.4167 51.0417 46.9583 51.2917 46.375 51.625C45.875 51.9583 45.5 52.2083 45.25 52.375C44.25 52.9583 43.5 53.2917 43 53.375C42.6667 53.4583 42.3333 53.625 42 53.875C40.8333 54.875 40 55.5417 39.5 55.875C39.4167 55.9583 39.3333 56.0417 39.25 56.125C39.0833 56.2917 38.6667 56.625 38 57.125C37.75 57.2917 37.625 57.4167 37.625 57.5C37.4583 57.75 37.0417 58.0833 36.375 58.5C36.2917 58.5833 36.125 58.7083 35.875 58.875C35.7083 58.9583 35.5833 59 35.5 59C35.3333 59.0833 35.25 59.125 35.25 59.125C35 59.0417 34.7083 59.0833 34.375 59.25C34.125 59.3333 33.9167 59.2917 33.75 59.125C33.6667 59.0417 33.5833 58.9583 33.5 58.875C33.25 58.7917 33.0417 58.5833 32.875 58.25C32.875 58.0833 32.8333 57.9167 32.75 57.75C32.6667 57.5833 32.5833 57.4583 32.5 57.375C32.4167 57.125 32.5 56.9583 32.75 56.875C33.25 56.7083 33.75 56.4583 34.25 56.125C34.3333 56.125 34.375 56.125 34.375 56.125C34.7917 56.0417 35.3333 55.7083 36 55.125C36.9167 54.4583 37.8333 53.6667 38.75 52.75C39.5833 52.0833 40.25 51.3333 40.75 50.5C41.3333 49.5833 41.7083 48.875 41.875 48.375C42.0417 48.125 42.2083 47.7917 42.375 47.375C43.0417 46.4583 43.7083 45.2917 44.375 43.875C44.625 43.2083 44.875 42.5 45.125 41.75C45.2917 41.3333 45.9167 39.375 47 35.875C47.1667 35.4583 47.2083 35.125 47.125 34.875C47.0417 34.7917 47.0417 34.6667 47.125 34.5C47.125 34.5 47.125 34.4583 47.125 34.375C47.4583 33.7083 47.625 33.375 47.625 33.375C47.7083 33.2917 47.75 33.125 47.75 32.875C47.75 32.625 47.7917 32.4167 47.875 32.25C47.9583 32.25 47.9583 32.1667 47.875 32C47.875 31.75 47.875 31.625 47.875 31.625C47.875 31.375 47.9583 31.2917 48.125 31.375C48.5417 31.5417 49.0833 31.625 49.75 31.625C50 31.5417 50.1667 31.625 50.25 31.875C50.3333 32.125 50.5 32.375 50.75 32.625C51.0833 33.125 51.5 33.5417 52 33.875C52.5 34.2083 53 34.6667 53.5 35.25C53.8333 35.5833 54.375 36.0833 55.125 36.75C55.5417 37.1667 56 37.5 56.5 37.75C56.9167 37.8333 57.1667 38.0833 57.25 38.5C57.3333 38.9167 57.4583 39.3333 57.625 39.75C57.7917 40 57.7083 40.25 57.375 40.5C57.0417 40.75 56.5417 40.9167 55.875 41C55.7083 41 55.2917 41.0833 54.625 41.25C54.375 41.3333 54.2083 41.5 54.125 41.75C54.0417 42.3333 53.8333 43 53.5 43.75C53.5 43.75 53.5 43.7917 53.5 43.875C53.4167 44.2083 53.5 44.375 53.75 44.375C53.8333 44.375 53.9583 44.375 54.125 44.375C54.375 44.375 54.5417 44.375 54.625 44.375C54.7083 44.4583 56.25 44.5 59.25 44.5C60.0833 44.5 60.9583 44.5417 61.875 44.625C62.375 44.7083 62.875 44.7917 63.375 44.875C63.625 44.875 64.0417 44.9167 64.625 45C65.2083 45 65.6667 45 66 45C66.5 45 66.8333 44.7917 67 44.375C67.25 43.7917 67.7917 42.875 68.625 41.625C68.7917 41.375 68.9583 41.1667 69.125 41C69.375 40.8333 69.5833 40.7917 69.75 40.875C69.75 40.9583 69.75 41 69.75 41C70.3333 41.3333 71.0833 41.4167 72 41.25C72.1667 41.25 72.2917 41.25 72.375 41.25C72.7083 41.25 72.9583 41.375 73.125 41.625C73.125 41.625 73.1667 41.8333 73.25 42.25C73.5833 43.25 73.9167 43.9167 74.25 44.25C74.4167 44.5 74.5 44.7917 74.5 45.125C74.5833 45.5417 74.75 45.9583 75 46.375C75.1667 46.7083 75.2083 47.0833 75.125 47.5C75.125 47.9167 74.875 48.125 74.375 48.125C74.375 48.125 74.3333 48.125 74.25 48.125C74 48.0417 73.75 48.0833 73.5 48.25C73.1667 48.5 72.75 48.5833 72.25 48.5C72.25 48.4167 72.1667 48.375 72 48.375C71.75 48.375 71.1667 48.375 70.25 48.375C69.4167 48.2917 68.75 48.25 68.25 48.25C68 48.25 67.3333 48.2083 66.25 48.125C65.6667 48.125 64.4583 48 62.625 47.75C62.5417 47.75 62.375 47.75 62.125 47.75C60.7083 47.6667 59.6667 47.625 59 47.625C58.6667 47.625 58.4583 47.6667 58.375 47.75C58.2917 47.75 58.25 47.7917 58.25 47.875C58.3333 47.9583 58.4167 48.0417 58.5 48.125C58.75 48.2083 59.4167 48.6667 60.5 49.5C61 49.8333 61.4583 50.125 61.875 50.375C61.9583 50.375 62.0417 50.4167 62.125 50.5C62.2917 50.5 62.4167 50.5417 62.5 50.625C63 50.7917 63.25 51.125 63.25 51.625C63.25 51.875 63.3333 52.125 63.5 52.375C63.5833 52.5417 63.625 52.625 63.625 52.625C63.7083 52.875 63.6667 53.0833 63.5 53.25C63.3333 53.3333 63.0833 53.4583 62.75 53.625C62.6667 53.625 62.5 53.6667 62.25 53.75C62.0833 53.8333 61.9583 53.9167 61.875 54C61.625 54.0833 61.5 54.2083 61.5 54.375C61.5833 54.4583 61.625 54.625 61.625 54.875C61.625 55.0417 61.625 55.1667 61.625 55.25C61.7083 55.75 61.6667 56.1667 61.5 56.5C61.5 56.5833 61.5 56.6667 61.5 56.75C61.5 56.9167 61.4167 57.75 61.25 59.25C61.25 59.5 61.2083 59.875 61.125 60.375C61.125 60.7917 61.125 61.125 61.125 61.375C61.125 61.5417 61.2083 61.625 61.375 61.625C61.4583 61.625 61.5417 61.625 61.625 61.625C63.125 61.625 64.3333 61.625 65.25 61.625C66.1667 61.625 66.7083 61.625 66.875 61.625C67.2083 61.625 67.7083 61.625 68.375 61.625C69.125 61.5417 69.6667 61.5 70 61.5C70.1667 61.5 70.375 61.4583 70.625 61.375C70.9583 61.375 71.25 61.1667 71.5 60.75C71.5833 60.6667 71.6667 60.5833 71.75 60.5C71.9167 60.25 72.6667 59.1667 74 57.25C74.3333 56.8333 74.5833 56.375 74.75 55.875C74.8333 55.625 74.9583 55.4167 75.125 55.25C75.2917 55 75.5 54.9167 75.75 55C76.25 55.3333 77 55.4583 78 55.375C78.0833 55.2917 78.1667 55.25 78.25 55.25C78.75 55.25 79.0833 55.5 79.25 56C79.25 56.0833 79.2917 56.3333 79.375 56.75C79.5417 57.0833 79.6667 57.375 79.75 57.625C80 58.375 80.2083 58.9583 80.375 59.375C80.625 59.7917 81 60.2917 81.5 60.875C81.8333 61.2917 82.0417 61.7083 82.125 62.125C82.125 62.375 82.2083 62.6667 82.375 63C82.4583 63.1667 82.5417 63.3333 82.625 63.5C82.7083 64 82.5 64.25 82 64.25C81.5833 64.3333 81 64.4583 80.25 64.625C80.0833 64.7083 79.7917 64.75 79.375 64.75C76.625 64.75 74.7083 64.75 73.625 64.75C73.375 64.75 72.9583 64.7917 72.375 64.875C71.875 64.875 71.5 64.875 71.25 64.875C70.8333 64.875 69.3333 64.875 66.75 64.875C66.25 64.9583 65.9167 64.9583 65.75 64.875C65.1667 64.875 64.3333 64.9167 63.25 65C62.1667 65.0833 61.4583 65.125 61.125 65.125C60.7917 65.125 60.625 65.2917 60.625 65.625C60.4583 66.7083 60.3333 67.5 60.25 68C60.25 68.5 60.2083 69.5417 60.125 71.125C60.125 71.2083 60.0833 71.9583 60 73.375C59.9167 74.7917 59.875 75.875 59.875 76.625C59.7917 77.875 59.625 79.2917 59.375 80.875C59.2083 81.7083 59.0833 82.6667 59 83.75C58.9167 84.9167 58.875 85.5 58.875 85.5C58.875 85.5 58.875 85.5417 58.875 85.625C58.7917 86.0417 58.5417 86.3333 58.125 86.5ZM50 40.375C50.8333 39.2083 51.375 38.2083 51.625 37.375C51.7083 37.2083 51.6667 37.0833 51.5 37C51.4167 36.8333 51.3333 36.7083 51.25 36.625C51.1667 36.5417 51.0833 36.5 51 36.5C51 36.5 50.9583 36.5833 50.875 36.75C50.7083 37.8333 50.4167 38.9167 50 40C49.9167 40.1667 49.9167 40.2917 50 40.375ZM73.125 87.375C72.7917 86.7083 72.5833 86.3333 72.5 86.25C72.3333 86 72.2083 86 72.125 86.25C71.9583 86.5 71.9167 86.7083 72 86.875C72 87.0417 72.0417 87.2083 72.125 87.375C72.125 87.375 72.125 87.4583 72.125 87.625C72.125 87.7083 72.1667 87.75 72.25 87.75C72.3333 87.75 72.625 87.625 73.125 87.375ZM57.25 56.75C57.3333 56.25 57.4167 56 57.5 56C57.5833 55.75 57.625 55.375 57.625 54.875C57.625 54.7917 57.625 54.6667 57.625 54.5C57.5417 54.5 57.4583 54.5 57.375 54.5C57.2917 54.75 57.25 54.875 57.25 54.875C57.25 55.125 57.25 55.75 57.25 56.75ZM38.125 76.25H38C37.9167 76.5 37.9583 76.7083 38.125 76.875C38.2083 76.875 38.25 76.875 38.25 76.875C38.5 76.7917 38.5417 76.6667 38.375 76.5C38.2917 76.3333 38.2083 76.25 38.125 76.25ZM57.375 51C57.375 51.1667 57.4167 51.25 57.5 51.25C57.5833 51.3333 57.6667 51.3333 57.75 51.25C57.8333 51.1667 57.875 51.0833 57.875 51C57.7917 50.9167 57.7083 50.875 57.625 50.875C57.5417 50.7917 57.4583 50.75 57.375 50.75C57.375 50.8333 57.375 50.9167 57.375 51ZM71.75 82.375C71.75 82.375 71.7917 82.2917 71.875 82.125L71.75 81.75C71.6667 81.8333 71.625 81.9583 71.625 82.125C71.625 82.125 71.6667 82.2083 71.75 82.375ZM73.75 75.875C73.75 75.7083 73.75 75.625 73.75 75.625C73.6667 75.5417 73.5833 75.5417 73.5 75.625C73.5 75.625 73.5 75.6667 73.5 75.75C73.5833 75.8333 73.6667 75.875 73.75 75.875ZM9.375 107.375C8.54167 107.375 7.83333 107.167 7.25 106.75C7 106.583 6.83333 106.458 6.75 106.375C6.58333 106.125 6.29167 105.708 5.875 105.125C5.79167 104.958 5.75 104.708 5.75 104.375C5.83333 103.875 5.875 103.208 5.875 102.375C5.875 101.958 5.95833 101.583 6.125 101.25C6.29167 101 6.375 100.708 6.375 100.375C6.375 99.2083 6.375 98.5 6.375 98.25C6.375 97.75 6.41667 97.2917 6.5 96.875C6.66667 95.9583 6.79167 95.125 6.875 94.375C6.95833 93.7083 6.95833 93.1667 6.875 92.75C6.875 92.4167 6.875 92.0417 6.875 91.625C7.29167 89.7917 7.54167 88.625 7.625 88.125C7.79167 86.7917 7.83333 85.4167 7.75 84C7.75 83.6667 7.625 83.4583 7.375 83.375C7.20833 83.375 7.04167 83.375 6.875 83.375C6.45833 83.375 5.91667 83.2917 5.25 83.125C4.83333 83.0417 4.04167 82.875 2.875 82.625C2.70833 82.5417 2.58333 82.5 2.5 82.5C2.25 82.3333 2.04167 82.2083 1.875 82.125C1.54167 82.0417 1.25 81.7083 1 81.125C0.916667 81.0417 0.958333 80.9583 1.125 80.875C1.45833 80.625 1.79167 80.4583 2.125 80.375C2.70833 80.375 3.75 80.0833 5.25 79.5C5.33333 79.5 5.45833 79.4583 5.625 79.375C5.79167 79.2083 5.95833 79.125 6.125 79.125C6.29167 79.0417 6.45833 78.875 6.625 78.625C6.70833 78.625 6.83333 78.5 7 78.25C7.16667 78 7.29167 77.8333 7.375 77.75C7.875 77.1667 8.375 76.375 8.875 75.375C8.95833 75.2083 9.125 74.875 9.375 74.375C9.70833 73.7917 9.91667 73.3333 10 73C10.25 72.5 10.5 72 10.75 71.5C11 71.0833 11.2917 70.5 11.625 69.75C11.875 69 12.1667 68.4167 12.5 68C12.6667 67.6667 12.875 67.2083 13.125 66.625C13.4583 66.0417 13.6667 65.7083 13.75 65.625C13.9167 65.2917 14.0833 64.8333 14.25 64.25C14.5 63.5833 14.7083 63.125 14.875 62.875C14.9583 62.625 15.125 62.25 15.375 61.75C15.375 61.5833 15.4167 61.4167 15.5 61.25C15.5833 61 15.6667 60.8333 15.75 60.75C15.8333 60.5 16.0417 59.9583 16.375 59.125C17.125 57.5417 17.5 56.7083 17.5 56.625C17.75 56.0417 18.1667 55.3333 18.75 54.5C18.9167 54.25 19.0417 53.9583 19.125 53.625C19.2083 53.2917 19.4167 52.6667 19.75 51.75C19.8333 51.4167 19.9167 51.2083 20 51.125C20 51.125 20.2083 50.6667 20.625 49.75C20.7917 49.5833 20.875 49.4583 20.875 49.375C20.875 49.0417 21.0833 48.4167 21.5 47.5C21.75 46.6667 22 46.0833 22.25 45.75C22.6667 44.9167 22.9167 44.4167 23 44.25C23.1667 44.0833 23.3333 43.7917 23.5 43.375C23.75 42.875 23.9167 42.5417 24 42.375C24.0833 42.2083 24.125 42.0833 24.125 42C24.2083 41.8333 24.2917 41.5833 24.375 41.25C24.5417 40.8333 24.625 40.5417 24.625 40.375C24.625 40.2083 24.7083 40 24.875 39.75C25.5417 38.25 26 37.3333 26.25 37C26.4167 36.75 26.5 36.5 26.5 36.25C26.5 35.8333 26.625 35.2917 26.875 34.625C27.125 33.9583 27.25 33.375 27.25 32.875C27.25 32.7917 27.25 32.6667 27.25 32.5C27.3333 32.3333 27.4167 32.25 27.5 32.25C27.6667 32.3333 28.125 32.375 28.875 32.375C29.2083 32.2917 29.4167 32.4167 29.5 32.75C29.6667 33 29.75 33.1667 29.75 33.25C29.9167 33.5 29.9583 33.75 29.875 34C29.7917 34.0833 29.7083 34.2083 29.625 34.375C29.625 34.5417 29.625 34.6667 29.625 34.75C29.125 36.3333 28.75 37.5417 28.5 38.375C28 39.7917 27.6667 41.0833 27.5 42.25C27.4167 42.6667 27.25 43 27 43.25C26.8333 43.4167 26.7083 43.5417 26.625 43.625C26.375 44.0417 26.25 44.4583 26.25 44.875C26.25 45.4583 26.1667 45.9167 26 46.25C26 46.5 25.9167 46.875 25.75 47.375C25.5833 47.7917 25.5 48.125 25.5 48.375C25.5 48.4583 25.5 48.5417 25.5 48.625C25.3333 49.0417 25.0417 50.0833 24.625 51.75C24.5417 51.9167 24.4583 52.0417 24.375 52.125C24.2083 52.2083 24.0833 52.4167 24 52.75C23.0833 55.8333 22.5833 57.4167 22.5 57.5C22.1667 58.9167 21.9583 59.7917 21.875 60.125C21.7917 60.2917 21.6667 60.6667 21.5 61.25C20.8333 63.4167 20.4167 64.875 20.25 65.625C19.9167 66.5417 19.6667 67.2083 19.5 67.625C19.5 67.625 19.3333 68.1667 19 69.25C18.5833 70.6667 18.2917 71.75 18.125 72.5C18.0417 72.5833 17.9167 72.9583 17.75 73.625C17.5833 74.2917 17.5 74.8333 17.5 75.25C17.5 75.3333 17.4167 75.625 17.25 76.125C16.5833 78.5417 16.25 79.75 16.25 79.75C16.1667 80 16 80.9583 15.75 82.625C15.75 82.875 15.7917 83.125 15.875 83.375C15.875 83.5417 16.0833 84.2083 16.5 85.375C16.6667 85.9583 16.7917 86.3333 16.875 86.5C16.875 86.6667 16.9167 86.8333 17 87C17.0833 87.25 17.4167 88.2917 18 90.125C18.0833 90.375 18.125 90.625 18.125 90.875C18.2917 91.7083 18.6667 92.5417 19.25 93.375C19.5 93.7083 19.7917 94.2083 20.125 94.875C20.2083 95.0417 20.2917 95.3333 20.375 95.75C20.5417 96.0833 20.6667 96.2917 20.75 96.375C21.0833 97.125 21.25 98.0833 21.25 99.25C21.25 99.5833 21 99.9583 20.5 100.375C20.4167 100.542 20.2083 100.75 19.875 101C19.625 101.167 19.4167 101.333 19.25 101.5C19.0833 101.667 18.875 101.792 18.625 101.875C18.2083 102.125 17.875 102.417 17.625 102.75C16.7083 103.75 15.5833 104.583 14.25 105.25C14.0833 105.333 13.9583 105.417 13.875 105.5C13.875 105.5 13.4167 105.833 12.5 106.5C12.4167 106.5 12.2917 106.542 12.125 106.625C11.2917 106.875 10.6667 107.083 10.25 107.25C9.91667 107.333 9.625 107.375 9.375 107.375ZM9.75 80.875C10.0833 81.125 10.4167 81.2917 10.75 81.375C10.8333 80.9583 10.7917 80.625 10.625 80.375C10.4583 80.375 10.2083 80.5417 9.875 80.875C9.875 80.875 9.83333 80.875 9.75 80.875ZM14.75 95.5C14.75 96.0833 14.75 96.7917 14.75 97.625C14.75 97.7083 14.7917 97.75 14.875 97.75C14.9583 97.75 15 97.7083 15 97.625C15 96.875 14.9583 96.375 14.875 96.125C14.875 95.875 14.8333 95.6667 14.75 95.5ZM27 18.625C27 19.125 27 19.375 27 19.375C27 19.625 26.9583 19.8333 26.875 20C25.875 22.1667 24.9167 23.7083 24 24.625C23.9167 24.7083 23.75 24.875 23.5 25.125C23.3333 25.375 23.2083 25.5417 23.125 25.625C22.5417 26.2083 21.875 26.5833 21.125 26.75C20.875 26.8333 20.5417 26.9167 20.125 27C19.7917 27.0833 19.5 27.1667 19.25 27.25C18.8333 27.3333 18.5417 27.25 18.375 27C18.2917 26.9167 18.125 26.8333 17.875 26.75C17.625 26.6667 17.4167 26.5 17.25 26.25C17.0833 25.9167 16.8333 25.5417 16.5 25.125C16.25 24.875 16.1667 24.5417 16.25 24.125C16.3333 23.7917 16.375 23.625 16.375 23.625C16.5417 23.125 16.625 22.5 16.625 21.75C16.625 21.5 16.625 21.125 16.625 20.625C16.7083 20.125 16.75 19.75 16.75 19.5C16.6667 18.1667 16.2917 16.875 15.625 15.625C15.5417 15.4583 15.375 15.3333 15.125 15.25C14.0417 14.75 13.0417 14.4167 12.125 14.25C11.7083 14.25 11.375 14.125 11.125 13.875C10.7917 13.7917 10.5417 13.6667 10.375 13.5C10.2083 13.25 10 12.9583 9.75 12.625C9.58333 12.2917 9.45833 12.0833 9.375 12C9.29167 11.8333 9.25 11.7083 9.25 11.625C9.33333 11.4583 9.45833 11.375 9.625 11.375C9.95833 11.375 10.2917 11.4167 10.625 11.5C11.2083 11.5833 11.7083 11.5833 12.125 11.5C12.2917 11.5 12.4583 11.5 12.625 11.5C13.7917 11.6667 14.75 11.9167 15.5 12.25C16.3333 12.5833 17 12.7917 17.5 12.875C18 12.875 18.2917 12.875 18.375 12.875C19.0417 12.875 19.5833 12.9167 20 13C20.3333 13 20.7083 13 21.125 13C21.7083 13 22.5 13.0833 23.5 13.25C24.8333 13.5 25.7083 14.25 26.125 15.5C26.375 16 26.5417 16.4167 26.625 16.75C26.9583 17.25 27.0833 17.875 27 18.625ZM17.375 44.25C17.4583 44.6667 17.3333 45.2083 17 45.875C16.5833 47.125 16 48.125 15.25 48.875C14.4167 49.7917 13.6667 50.375 13 50.625C12.9167 50.7083 12.7917 50.7917 12.625 50.875C12.4583 50.9583 12.3333 51 12.25 51C11.9167 51.1667 11.625 51.2917 11.375 51.375C10.375 51.625 9.79167 51.7917 9.625 51.875C9.375 51.9583 9.16667 51.9167 9 51.75C8.83333 51.5833 8.66667 51.5 8.5 51.5C8.16667 51.3333 7.91667 51.125 7.75 50.875C7.58333 50.5417 7.375 50.2083 7.125 49.875C6.875 49.5417 6.79167 49.2083 6.875 48.875C6.875 48.7083 6.875 48.5833 6.875 48.5C7.04167 47.9167 7.125 46.9583 7.125 45.625C7.20833 45.2083 7.20833 44.875 7.125 44.625C7.04167 44.2083 6.95833 43.75 6.875 43.25C6.79167 43.0833 6.66667 42.8333 6.5 42.5C6.33333 42 6 41.7083 5.5 41.625C4.58333 41.375 3.66667 41.0833 2.75 40.75C2.5 40.6667 2.04167 40.4583 1.375 40.125C1.29167 40.125 1.20833 40.0417 1.125 39.875C0.958333 39.5417 0.708333 39.1667 0.375 38.75C0.375 38.75 0.375 38.7083 0.375 38.625C0.208333 38.375 0.25 38.25 0.5 38.25C0.75 38.1667 1 38.1667 1.25 38.25C1.75 38.4167 2.29167 38.4167 2.875 38.25C3.29167 38.25 3.79167 38.2917 4.375 38.375C5.375 38.7083 6.5 38.875 7.75 38.875C7.91667 38.875 8.375 38.875 9.125 38.875C9.95833 38.875 10.4583 38.875 10.625 38.875C11.4583 38.875 12.0833 38.9167 12.5 39C12.75 39.0833 13.2917 39.0833 14.125 39C14.4583 39 14.8333 39.0833 15.25 39.25C15.75 39.3333 16.0833 39.5833 16.25 40C16.25 40.0833 16.4583 40.5833 16.875 41.5C17.2917 42.5 17.4583 43.4167 17.375 44.25ZM13.125 42.5C13.125 42.3333 13.125 42.25 13.125 42.25C13.125 41.9167 12.9167 41.7917 12.5 41.875C12.3333 41.9583 12.2917 42.0833 12.375 42.25C12.4583 42.5 12.5417 42.75 12.625 43C12.7083 43.1667 12.7917 43.25 12.875 43.25C12.9583 43.25 13.0417 43.125 13.125 42.875C13.125 42.875 13.125 42.75 13.125 42.5ZM128.8 87.5C128.8 85.9167 128.8 85.0417 128.8 84.875C128.8 84.625 128.8 84.25 128.8 83.75C128.883 83.1667 128.925 82.75 128.925 82.5C128.925 81.75 128.925 80.7083 128.925 79.375C128.925 77.9583 128.925 76.9167 128.925 76.25C128.925 75.8333 128.925 75.0833 128.925 74C129.008 72.9167 129.05 72.0833 129.05 71.5C129.05 70.9167 129.05 70 129.05 68.75C129.133 68.5833 129.175 68.2083 129.175 67.625C129.175 67.0417 129.175 66.5833 129.175 66.25C129.342 66.1667 129.425 64.7083 129.425 61.875C129.425 59.0417 129.425 57.5833 129.425 57.5C129.425 54.5833 129.425 53.0833 129.425 53C129.508 52.75 129.508 52.5 129.425 52.25C129.342 51.8333 129.3 50.8333 129.3 49.25C129.3 48.25 129.258 47.5 129.175 47C129.175 46.5 129.175 45.7917 129.175 44.875C129.175 44.7083 129.175 44.2917 129.175 43.625C129.175 42.9583 129.217 42.4167 129.3 42C129.3 42 129.3 41.9167 129.3 41.75C129.3 41.5833 129.217 41.5833 129.05 41.75C128.717 42 128.467 42.1667 128.3 42.25C127.967 42.5 127.633 42.7083 127.3 42.875C127.217 42.9583 126.883 43.125 126.3 43.375C125.8 43.625 125.425 43.7917 125.175 43.875C125.008 43.9583 124.675 44.1667 124.175 44.5C123.842 44.6667 123.383 44.9167 122.8 45.25C122.217 45.5 121.8 45.7083 121.55 45.875C120.717 46.2917 120.008 46.75 119.425 47.25C119.258 47.4167 118.925 47.6667 118.425 48C118.008 48.3333 117.675 48.625 117.425 48.875C116.092 49.9583 115.3 50.625 115.05 50.875C114.3 51.625 113.467 52.375 112.55 53.125C111.8 53.7083 111.175 54.0417 110.675 54.125C110.508 54.2083 110.3 54.2917 110.05 54.375C109.967 54.4583 109.883 54.5 109.8 54.5C109.633 54.5833 109.425 54.5833 109.175 54.5C108.675 54.25 108.175 53.7083 107.675 52.875C107.508 52.5417 107.592 52.2917 107.925 52.125C108.258 51.9583 109.008 51.4583 110.175 50.625C110.508 50.2917 110.8 49.9583 111.05 49.625C111.3 49.375 111.633 49.0417 112.05 48.625C112.217 48.4583 112.467 48.2083 112.8 47.875C113.217 47.5417 113.508 47.2917 113.675 47.125C114.092 46.875 114.467 46.625 114.8 46.375C115.8 45.625 116.633 44.9583 117.3 44.375C117.717 43.9583 118.217 43.6667 118.8 43.5C119.217 43.25 119.758 42.875 120.425 42.375C120.508 42.375 120.883 42.0417 121.55 41.375C121.883 41.125 122.05 41 122.05 41C123.217 40.1667 124.383 38.9583 125.55 37.375C126.133 36.625 126.717 35.9167 127.3 35.25C128.133 34.25 128.842 33.1667 129.425 32C129.842 31.25 130.342 30.5 130.925 29.75C131.342 29.25 131.758 28.625 132.175 27.875C132.258 27.7083 132.342 27.5 132.425 27.25C132.592 27 132.717 26.8333 132.8 26.75C133.05 26.3333 133.425 25.7083 133.925 24.875C134.425 23.9583 135.092 22.6667 135.925 21C135.925 21 136.217 20.2083 136.8 18.625C136.8 18.625 136.8 18.5833 136.8 18.5C136.883 18.3333 136.925 18.2083 136.925 18.125C137.258 17.375 137.592 16.2917 137.925 14.875C138.092 14.375 138.383 13.625 138.8 12.625C138.8 12.5417 139.175 11.5 139.925 9.5C140.092 9.25 140.133 9.08333 140.05 9C140.05 8.75 140.133 8.45833 140.3 8.125C140.55 7.79167 140.925 6.95833 141.425 5.625C141.842 4.45833 142.175 3.45833 142.425 2.625C142.425 2.45833 142.508 2.20833 142.675 1.875C142.758 1.625 142.883 1.58333 143.05 1.75C143.633 2 144.3 2.04167 145.05 1.875C145.383 1.79167 145.675 1.875 145.925 2.125C146.175 2.54167 147.425 3.875 149.675 6.125C149.925 6.375 150.133 6.54167 150.3 6.625C150.8 6.95833 151.467 7.5 152.3 8.25C153.133 8.91667 153.717 9.375 154.05 9.625C154.467 9.95833 154.842 10.1667 155.175 10.25C155.592 10.3333 155.842 10.5833 155.925 11C155.925 11.4167 156.05 11.7917 156.3 12.125C156.3 12.2083 156.3 12.3333 156.3 12.5C156.383 12.5833 156.383 12.6667 156.3 12.75C156.133 12.8333 155.967 12.9167 155.8 13C154.883 13.3333 154.258 13.5417 153.925 13.625C153.175 13.7917 152.342 14 151.425 14.25C150.675 14.5 150.092 14.5417 149.675 14.375C149.592 14.375 149.508 14.4583 149.425 14.625C149.258 15.0417 149.133 15.2917 149.05 15.375C148.55 17.0417 147.925 18.5 147.175 19.75C146.925 20.1667 147.05 20.4167 147.55 20.5C147.633 20.5 147.675 20.5 147.675 20.5C148.092 20.5 149.383 20.5417 151.55 20.625C152.467 20.7083 154.05 20.7917 156.3 20.875C156.467 20.875 157.425 20.9167 159.175 21C159.258 21 159.3 21 159.3 21C159.717 21 160.258 21.0417 160.925 21.125C161.675 21.2083 162.175 21.25 162.425 21.25C163.342 21.25 164.383 21.3333 165.55 21.5C165.633 21.5 165.883 21.5 166.3 21.5C166.967 21.5 167.425 21.5417 167.675 21.625C167.675 21.625 167.758 21.625 167.925 21.625C168.258 21.7083 168.508 21.5833 168.675 21.25C169.342 20.4167 169.8 19.6667 170.05 19C170.633 17.4167 171.092 16.1667 171.425 15.25C171.425 15.1667 171.425 15.0833 171.425 15C171.508 14.75 171.675 14.6667 171.925 14.75C172.092 14.75 172.175 14.75 172.175 14.75C172.675 15 173.258 15.0417 173.925 14.875C174.258 14.7917 174.592 14.875 174.925 15.125C176.342 16.5417 177.092 17.25 177.175 17.25C177.508 17.6667 178.008 18.125 178.675 18.625C179.175 18.9583 179.55 19.3333 179.8 19.75C180.133 20.1667 180.717 20.7083 181.55 21.375C182.8 22.2917 183.55 22.8333 183.8 23C184.05 23.1667 184.217 23.375 184.3 23.625C184.383 24.125 184.55 24.5417 184.8 24.875C184.8 24.9583 184.8 25.0417 184.8 25.125C184.8 25.2917 184.758 25.4167 184.675 25.5C184.592 25.5 184.508 25.5 184.425 25.5C183.925 25.5 183.467 25.625 183.05 25.875C182.967 25.9583 182.842 26 182.675 26C182.425 26 182.05 26.0417 181.55 26.125C181.133 26.125 180.883 26.125 180.8 26.125C180.383 26.125 179.925 26.125 179.425 26.125C179.092 26.125 178.842 26.2083 178.675 26.375C178.508 26.5417 178.175 26.8333 177.675 27.25C177.258 27.5833 176.967 27.875 176.8 28.125C176.3 28.5417 175.467 29.125 174.3 29.875C173.133 30.5417 172.008 31.0417 170.925 31.375C170.592 31.5417 170.133 31.8333 169.55 32.25C169.3 32.3333 168.8 32.5833 168.05 33C166.467 33.8333 165.3 34.5417 164.55 35.125C164.3 35.2917 163.592 36 162.425 37.25C162.008 37.5833 161.467 38 160.8 38.5C159.55 39.3333 158.55 39.9167 157.8 40.25C157.717 40.3333 157.675 40.4167 157.675 40.5C157.758 40.5833 157.842 40.625 157.925 40.625C158.008 40.625 158.258 40.625 158.675 40.625C160.675 40.625 161.717 40.6667 161.8 40.75C162.383 40.75 163.133 40.75 164.05 40.75C165.05 40.75 165.8 40.7917 166.3 40.875C166.967 40.875 167.967 40.9167 169.3 41C170.633 41 171.383 41 171.55 41C174.717 41.0833 176.383 41.125 176.55 41.125C176.883 41.125 177.55 41.1667 178.55 41.25C179.633 41.25 180.467 41.2917 181.05 41.375C181.05 41.375 181.342 41.375 181.925 41.375C182.758 41.375 183.3 41.4167 183.55 41.5C183.883 41.5833 184.133 41.5 184.3 41.25C184.467 40.9167 184.883 40.25 185.55 39.25C185.883 38.75 186.133 38.2083 186.3 37.625C186.383 37.375 186.675 36.8333 187.175 36C187.508 35.5 187.717 35.125 187.8 34.875C187.967 34.5417 188.217 34.4583 188.55 34.625C189.05 34.7917 189.633 34.7917 190.3 34.625C190.8 34.5417 191.175 34.7083 191.425 35.125C191.758 35.625 192.3 36.2917 193.05 37.125C193.633 37.7083 194.217 38.375 194.8 39.125C195.383 39.7917 195.925 40.25 196.425 40.5C197.092 40.8333 197.717 41.25 198.3 41.75C198.717 42 199.3 42.3333 200.05 42.75C200.467 42.9167 200.675 43.2083 200.675 43.625C200.758 43.875 200.883 44.1667 201.05 44.5C201.133 44.5833 201.217 44.7083 201.3 44.875C201.383 45.0417 201.342 45.2083 201.175 45.375C200.925 45.5417 200.675 45.6667 200.425 45.75C198.592 46.75 197.175 47.4167 196.175 47.75C195.592 48 195.092 48.1667 194.675 48.25C194.342 48.3333 194.133 48.5417 194.05 48.875C194.05 48.9583 193.967 49.4167 193.8 50.25C193.633 51.0833 193.55 51.7083 193.55 52.125C193.467 52.375 193.425 52.75 193.425 53.25C193.508 54.8333 193.55 55.8333 193.55 56.25C193.55 56.25 193.55 56.4167 193.55 56.75C193.633 58.5 193.675 59.7083 193.675 60.375C193.675 60.4583 193.675 60.625 193.675 60.875C193.592 61.2083 193.633 61.5417 193.8 61.875C193.967 61.9583 194.217 62.2917 194.55 62.875C194.883 63.4583 195.175 63.9167 195.425 64.25C195.508 64.3333 195.592 64.5 195.675 64.75C195.842 65.25 196.008 65.6667 196.175 66C196.342 66.25 196.425 66.5833 196.425 67C196.425 67.1667 196.342 67.2917 196.175 67.375C196.092 67.4583 196.008 67.5 195.925 67.5C195.175 67.6667 194.467 67.9167 193.8 68.25C193.55 68.4167 193.175 68.5417 192.675 68.625C192.508 68.625 192.175 68.7083 191.675 68.875C191.258 68.9583 190.925 69.0417 190.675 69.125C190.425 69.125 190.092 69.1667 189.675 69.25C189.342 69.3333 189.175 69.375 189.175 69.375C188.175 69.625 187.092 70.0417 185.925 70.625C185.758 70.7917 185.508 70.9167 185.175 71C185.008 71.0833 184.883 71.125 184.8 71.125C184.633 71.0417 184.342 71.125 183.925 71.375C183.758 71.4583 183.675 71.5 183.675 71.5C183.425 71.5833 183.217 71.5417 183.05 71.375C182.967 71.375 182.883 71.375 182.8 71.375C182.8 71.2917 182.8 71.25 182.8 71.25C182.633 71.1667 182.425 71.125 182.175 71.125C182.008 71.2917 181.842 71.25 181.675 71C181.508 70.9167 181.342 70.8333 181.175 70.75C180.842 70.6667 180.592 70.4583 180.425 70.125C180.342 69.875 180.175 69.5833 179.925 69.25C179.675 68.9167 179.592 68.5417 179.675 68.125C179.842 66.875 179.967 66.0417 180.05 65.625C180.133 65.375 180.008 65.25 179.675 65.25C179.592 65.25 179.425 65.25 179.175 65.25C177.175 65.4167 175.925 65.5 175.425 65.5C175.342 65.5 175.175 65.5417 174.925 65.625C174.675 65.625 174.508 65.625 174.425 65.625C173.925 65.625 173.217 65.625 172.3 65.625C170.3 65.7083 169.175 65.75 168.925 65.75C168.675 65.75 168.342 65.75 167.925 65.75C167.508 65.6667 167.217 65.625 167.05 65.625C163.3 65.625 160.967 65.625 160.05 65.625C158.633 65.7083 157.425 65.9167 156.425 66.25C155.925 66.4167 155.175 66.5 154.175 66.5C153.592 66.5 152.633 66.5 151.3 66.5C149.967 66.5 148.925 66.5 148.175 66.5C146.508 66.5833 145.342 66.625 144.675 66.625C144.258 66.7083 143.633 66.7917 142.8 66.875C142.05 66.875 141.592 66.875 141.425 66.875C140.425 66.875 139.675 66.9583 139.175 67.125C138.592 67.2083 137.967 67.25 137.3 67.25C136.633 67.25 136.383 67.5417 136.55 68.125C136.55 68.2083 136.55 68.375 136.55 68.625C136.633 71.5417 136.675 73.375 136.675 74.125C136.675 74.4583 136.675 75.8333 136.675 78.25C136.675 78.4167 136.675 78.7083 136.675 79.125C136.758 79.5417 136.8 79.875 136.8 80.125C136.8 80.375 136.8 80.5833 136.8 80.75C136.8 80.8333 136.8 81 136.8 81.25C136.8 81.4167 136.8 81.5417 136.8 81.625C136.883 82.625 136.925 83.3333 136.925 83.75C137.008 84.1667 136.967 85.1667 136.8 86.75C136.717 87.1667 136.675 87.4583 136.675 87.625C136.675 88.2083 136.675 89.125 136.675 90.375C136.675 91.5417 136.675 92.4167 136.675 93C136.675 93.25 136.8 94.0417 137.05 95.375C137.05 95.5417 137.175 95.7917 137.425 96.125C138.508 97.2917 139.592 98.125 140.675 98.625C140.925 98.7917 141.258 99 141.675 99.25C142.592 99.8333 143.842 100.25 145.425 100.5C145.842 100.583 146.175 100.667 146.425 100.75C146.925 101 147.425 101.125 147.925 101.125C150.425 101.125 152.05 101.083 152.8 101C152.883 101 153.925 100.917 155.925 100.75C156.342 100.667 156.633 100.625 156.8 100.625C157.217 100.625 157.633 100.583 158.05 100.5C158.633 100.333 159.342 100.292 160.175 100.375C160.592 100.375 161.258 100.375 162.175 100.375C163.092 100.375 163.758 100.375 164.175 100.375C164.758 100.375 165.258 100.292 165.675 100.125C166.675 99.7917 167.675 99.6667 168.675 99.75C169.342 99.8333 169.925 99.7917 170.425 99.625C170.508 99.5417 170.717 99.5 171.05 99.5C171.05 99.5 171.258 99.5 171.675 99.5C172.175 99.4167 172.55 99.3333 172.8 99.25C174.383 99 175.925 98.875 177.425 98.875C178.258 98.9583 179.258 98.875 180.425 98.625C181.508 98.4583 182.883 98.1667 184.55 97.75C185.217 97.5833 185.925 97.5 186.675 97.5C187.425 97.4167 188.258 97.25 189.175 97C189.258 97 190.383 96.7917 192.55 96.375C193.217 96.2917 194.05 96 195.05 95.5C195.383 95.25 195.8 94.75 196.3 94C196.55 93.75 196.842 93.375 197.175 92.875C197.508 92.2917 197.717 91.9167 197.8 91.75C197.883 91.75 198.133 91.4583 198.55 90.875C198.967 90.2917 199.258 89.8333 199.425 89.5C199.925 88.6667 200.425 87.8333 200.925 87C201.592 85.6667 202.133 84.6667 202.55 84C202.633 83.8333 202.8 83.5417 203.05 83.125C203.383 82.7083 203.592 82.375 203.675 82.125C203.758 82.0417 204.092 81.375 204.675 80.125C204.758 79.9583 204.883 79.6667 205.05 79.25C205.217 78.8333 205.342 78.5 205.425 78.25C205.592 77.9167 205.758 77.625 205.925 77.375C206.592 76.375 207.008 75.5417 207.175 74.875C207.258 74.625 207.342 74.25 207.425 73.75C207.508 73.5 207.592 73.2917 207.675 73.125C207.758 73.125 207.842 72.9583 207.925 72.625C208.008 72.4583 208.133 72.4167 208.3 72.5C208.467 72.5833 208.8 72.625 209.3 72.625C209.717 72.625 209.967 72.8333 210.05 73.25C210.217 73.75 210.217 74.2917 210.05 74.875C210.05 74.9583 209.925 75.375 209.675 76.125C209.508 76.7917 209.425 77.2917 209.425 77.625C209.342 77.7917 209.3 77.9167 209.3 78C209.05 78.1667 208.925 78.5 208.925 79C208.925 79.25 208.842 79.5833 208.675 80C208.425 80.9167 208.217 81.5417 208.05 81.875C207.883 82.2917 207.8 82.7917 207.8 83.375C207.717 83.7083 207.675 84.2083 207.675 84.875C207.758 85.5417 207.8 86.0417 207.8 86.375C207.717 87.875 207.592 89.2083 207.425 90.375C207.425 90.625 207.383 91.0833 207.3 91.75C207.3 92 207.467 92.1667 207.8 92.25C208.467 92.5 209.092 92.625 209.675 92.625C209.842 92.625 210.133 92.625 210.55 92.625C210.967 92.625 211.217 92.625 211.3 92.625C211.8 92.625 212.217 92.7083 212.55 92.875C212.8 93.125 213.133 93.2083 213.55 93.125C213.883 93.125 214.175 93.125 214.425 93.125C215.092 93.2083 215.508 93.5417 215.675 94.125C215.758 94.7083 215.883 95.25 216.05 95.75C216.05 95.9167 216.05 96.2083 216.05 96.625C216.133 97.9583 216.175 98.75 216.175 99C216.258 99.3333 216.175 99.625 215.925 99.875C215.008 100.708 214.342 101.25 213.925 101.5C212.675 102.25 211.8 102.75 211.3 103C210.467 103.5 209.717 103.792 209.05 103.875C208.133 104.042 207.008 104.375 205.675 104.875C204.425 105.292 203.05 105.708 201.55 106.125C201.3 106.208 200.8 106.333 200.05 106.5C198.467 106.75 197.092 107.083 195.925 107.5C195.258 107.667 194.467 107.833 193.55 108C192.467 108.083 191.425 108.125 190.425 108.125C190.342 108.125 190.133 108.125 189.8 108.125C189.467 108.125 189.258 108.125 189.175 108.125C188.342 108.125 186.925 108.208 184.925 108.375C184.758 108.375 184.425 108.375 183.925 108.375C182.842 108.375 181.925 108.417 181.175 108.5C181.008 108.5 180.425 108.5 179.425 108.5C178.592 108.5 177.967 108.542 177.55 108.625C177.383 108.625 177.133 108.625 176.8 108.625C172.967 108.708 169.675 108.75 166.925 108.75C166.008 108.75 165.092 108.75 164.175 108.75C163.425 108.667 162.675 108.708 161.925 108.875C161.758 108.875 160.883 108.958 159.3 109.125C159.217 109.125 159.175 109.125 159.175 109.125C158.508 109.292 157.383 109.375 155.8 109.375C155.133 109.375 154.508 109.375 153.925 109.375C152.508 109.375 150.925 109.292 149.175 109.125C148.425 109.042 147.717 109 147.05 109C146.8 109 146.675 108.958 146.675 108.875C146.342 108.875 145.883 108.792 145.3 108.625C144.717 108.542 144.3 108.458 144.05 108.375C143.467 108.208 142.633 107.958 141.55 107.625C140.467 107.292 139.842 107.083 139.675 107C139.008 106.75 138.3 106.333 137.55 105.75C137.05 105.333 136.425 104.958 135.675 104.625C134.758 104.125 133.967 103.417 133.3 102.5C132.55 101.583 132.05 100.917 131.8 100.5C131.383 99.9167 130.925 99 130.425 97.75C130.258 97.25 130.05 96.7083 129.8 96.125C129.467 95.4583 129.217 94.4167 129.05 93C129.05 93 129.05 92.9167 129.05 92.75C129.05 92.5 129.008 92.3333 128.925 92.25C128.842 91.5 128.8 90.625 128.8 89.625C128.8 89.5417 128.8 88.8333 128.8 87.5ZM148.8 63.375C150.383 63.375 151.3 63.375 151.55 63.375C152.883 63.375 153.925 63.2083 154.675 62.875C154.758 62.875 154.967 62.8333 155.3 62.75C155.383 62.75 155.592 62.75 155.925 62.75C156.258 62.6667 156.55 62.625 156.8 62.625C156.967 62.5417 157.008 62.4167 156.925 62.25C156.842 62.1667 156.8 62.0833 156.8 62C156.467 61.6667 156.3 61.2083 156.3 60.625C156.383 58.7917 156.425 56.6667 156.425 54.25C156.425 52.75 156.383 51.75 156.3 51.25C156.3 51.25 156.3 51.0417 156.3 50.625C156.3 49.2917 156.3 48.5417 156.3 48.375C156.3 48.2083 156.258 48 156.175 47.75C156.175 47.4167 156.175 47.1667 156.175 47C156.175 46.8333 156.175 46.0833 156.175 44.75C156.175 44.3333 156.133 44.0833 156.05 44C155.967 43.9167 155.717 43.875 155.3 43.875C152.717 43.7917 151.342 43.75 151.175 43.75C150.008 43.75 148.717 43.625 147.3 43.375C146.717 43.375 146.175 43.375 145.675 43.375C145.592 43.375 145.092 43.375 144.175 43.375C143.342 43.375 142.883 43.375 142.8 43.375C141.717 43.2917 140.842 43.25 140.175 43.25C140.092 43.1667 139.592 43.125 138.675 43.125C138.425 43.125 138.217 43.1667 138.05 43.25C137.8 43.4167 137.55 43.5833 137.3 43.75C136.967 43.9167 136.8 44.1667 136.8 44.5C136.8 44.5833 136.8 44.875 136.8 45.375C136.883 45.875 136.925 46.25 136.925 46.5C137.008 47.0833 137.008 47.625 136.925 48.125C136.842 49.0417 136.842 50 136.925 51C137.008 52.0833 136.967 54 136.8 56.75C136.717 57.5 136.633 58.4167 136.55 59.5C136.467 60.1667 136.425 60.75 136.425 61.25C136.425 61.8333 136.467 62.625 136.55 63.625C136.55 63.875 136.675 64 136.925 64C137.008 64 137.092 64 137.175 64C137.258 63.9167 137.3 63.875 137.3 63.875C138.3 63.7917 138.842 63.75 138.925 63.75C141.175 63.6667 142.342 63.625 142.425 63.625C142.842 63.5417 143.383 63.5 144.05 63.5C144.8 63.5 145.3 63.4583 145.55 63.375C145.717 63.375 146.8 63.375 148.8 63.375ZM162.675 44C163.508 44.4167 163.967 44.625 164.05 44.625C164.717 44.9583 165.258 45.1667 165.675 45.25C165.842 45.25 166.05 45.3333 166.3 45.5C166.55 45.5833 166.675 45.75 166.675 46C166.758 46.4167 166.967 46.875 167.3 47.375C167.467 47.7083 167.342 47.9167 166.925 48C166.842 48.0833 166.8 48.125 166.8 48.125C166.55 48.125 166.175 48.2083 165.675 48.375C165.175 48.5417 164.8 48.625 164.55 48.625C164.3 48.625 164.175 48.7917 164.175 49.125C164.175 49.9583 164.175 50.5 164.175 50.75C164.258 51 164.3 51.2917 164.3 51.625C164.3 51.875 164.3 52.375 164.3 53.125C164.3 53.875 164.3 54.4583 164.3 54.875C164.3 56.5417 164.3 57.75 164.3 58.5C164.217 59.3333 164.342 60.0833 164.675 60.75C164.758 61 164.842 61.25 164.925 61.5C164.925 61.9167 164.717 62.1667 164.3 62.25C164.217 62.3333 164.175 62.4167 164.175 62.5C164.258 62.5 164.467 62.5 164.8 62.5C167.8 62.5 169.717 62.5 170.55 62.5C170.717 62.5 172.092 62.4583 174.675 62.375C174.675 62.375 174.717 62.375 174.8 62.375C176.383 62.2083 177.467 62.125 178.05 62.125C178.217 62.125 178.425 62.0833 178.675 62C180.092 61.8333 181.175 61.75 181.925 61.75C182.175 61.8333 182.592 61.8333 183.175 61.75C183.508 61.75 183.675 61.5833 183.675 61.25C183.675 60.9167 183.717 59.9583 183.8 58.375C183.8 57.625 183.8 57.2083 183.8 57.125C183.883 56.7083 184.008 55.7917 184.175 54.375C184.258 53.4583 184.342 52.8333 184.425 52.5C184.425 51.1667 184.467 49.6667 184.55 48C184.55 47.4167 184.508 46.7917 184.425 46.125C184.425 45.875 184.133 45.375 183.55 44.625C183.467 44.625 183.3 44.5833 183.05 44.5C183.05 44.5 182.883 44.5 182.55 44.5C181.217 44.5 180.508 44.5 180.425 44.5C179.842 44.4167 178.967 44.375 177.8 44.375C176.717 44.2917 175.967 44.25 175.55 44.25C175.05 44.1667 174.258 44.125 173.175 44.125C172.092 44.125 171.425 44.125 171.175 44.125C170.592 44.125 169.383 44.125 167.55 44.125C165.717 44.0417 164.3 43.9583 163.3 43.875C163.05 43.875 162.842 43.9167 162.675 44ZM150.925 40.625C151.592 40.625 151.967 40.625 152.05 40.625C152.467 40.625 152.8 40.5417 153.05 40.375C153.717 39.875 154.258 39.5 154.675 39.25C155.092 38.9167 155.55 38.4583 156.05 37.875C156.3 37.5417 156.675 37.1667 157.175 36.75C158.175 35.9167 158.883 35.2917 159.3 34.875C159.55 34.625 159.633 34.4167 159.55 34.25C159.55 34 159.675 33.75 159.925 33.5C160.342 33.1667 160.675 32.9167 160.925 32.75C161.258 32.5833 161.55 32.2917 161.8 31.875C161.967 31.7083 162.175 31.4583 162.425 31.125C162.675 30.7917 162.842 30.5417 162.925 30.375C163.258 29.875 163.467 29.5417 163.55 29.375C163.717 29.0417 163.883 28.7917 164.05 28.625C164.05 28.625 164.258 28.375 164.675 27.875C164.842 27.5417 165.05 27.125 165.3 26.625C165.633 26.0417 165.883 25.6667 166.05 25.5C166.3 25 166.383 24.75 166.3 24.75C166.3 24.6667 166.05 24.5833 165.55 24.5C165.467 24.5 165.342 24.5 165.175 24.5C165.008 24.5 164.925 24.5 164.925 24.5C164.508 24.5 164.258 24.4583 164.175 24.375C163.842 24.375 163.467 24.375 163.05 24.375C162.3 24.375 161.717 24.3333 161.3 24.25C160.883 24.1667 160.383 24.0833 159.8 24C159.383 24 158.717 24 157.8 24C156.967 24 156.383 23.9583 156.05 23.875C154.717 23.875 153.55 23.8333 152.55 23.75C151.55 23.5833 150.842 23.5833 150.425 23.75C150.175 23.8333 149.925 23.875 149.675 23.875C148.592 23.7917 147.967 23.7083 147.8 23.625C147.55 23.625 147.175 23.5833 146.675 23.5C146.175 23.3333 145.883 23.25 145.8 23.25C145.55 23.25 145.342 23.375 145.175 23.625C145.008 24.0417 144.717 24.5833 144.3 25.25C143.883 25.9167 143.592 26.4167 143.425 26.75C143.342 26.8333 143.258 26.9167 143.175 27C142.508 27.9167 141.967 28.8333 141.55 29.75C141.55 29.8333 141.425 30.0417 141.175 30.375C141.008 30.625 140.883 30.7917 140.8 30.875C140.717 31.0417 140.55 31.3333 140.3 31.75C140.05 32.0833 139.8 32.375 139.55 32.625C139.133 33.125 138.592 33.75 137.925 34.5C137.842 34.5833 137.717 34.75 137.55 35C137.467 35.25 137.383 35.4167 137.3 35.5C135.883 36.9167 135.175 37.6667 135.175 37.75C135.008 37.8333 135.008 37.9167 135.175 38C135.592 38.25 136.05 38.5 136.55 38.75C136.633 38.75 136.8 38.8333 137.05 39C137.383 39.0833 137.633 39.1667 137.8 39.25C138.133 39.3333 138.425 39.4167 138.675 39.5C139.175 39.5833 139.592 39.75 139.925 40C140.092 40.1667 140.342 40.25 140.675 40.25C141.425 40.1667 142.092 40.1667 142.675 40.25C143.925 40.25 144.633 40.25 144.8 40.25C145.05 40.25 145.8 40.2917 147.05 40.375C147.217 40.375 147.425 40.375 147.675 40.375C149.258 40.5417 150.342 40.625 150.925 40.625ZM142.05 103.125C142.133 103.208 142.175 103.25 142.175 103.25C142.175 103.333 142.175 103.417 142.175 103.5C142.508 104.417 143.008 104.917 143.675 105C143.675 105 143.717 105 143.8 105C145.05 105.417 146.092 105.667 146.925 105.75C147.092 105.75 147.175 105.708 147.175 105.625C147.175 105.542 147.175 105.5 147.175 105.5C145.592 104.667 144.592 104.083 144.175 103.75C144.092 103.667 143.925 103.583 143.675 103.5C143.508 103.5 142.967 103.375 142.05 103.125ZM185.925 104.75C186.092 104.75 186.175 104.75 186.175 104.75C186.925 104.75 187.967 104.708 189.3 104.625C190.633 104.625 191.508 104.583 191.925 104.5C192.092 104.5 192.175 104.5 192.175 104.5C192.175 104.417 192.133 104.333 192.05 104.25C192.05 104.25 192.008 104.208 191.925 104.125C191.425 103.875 191.133 103.667 191.05 103.5C190.967 103.333 190.842 103.292 190.675 103.375C190.508 103.375 190.383 103.375 190.3 103.375C188.467 103.875 187.05 104.25 186.05 104.5C185.967 104.583 185.925 104.667 185.925 104.75ZM176.3 105.125C176.217 105.042 176.092 104.958 175.925 104.875C175.842 104.792 175.758 104.708 175.675 104.625C175.675 104.625 175.592 104.542 175.425 104.375C175.342 104.292 175.3 104.208 175.3 104.125C175.217 104.042 175.092 104 174.925 104C174.508 104 174.092 104.083 173.675 104.25C173.508 104.333 173.467 104.458 173.55 104.625C173.717 105.042 174.008 105.25 174.425 105.25C175.175 105.25 175.8 105.208 176.3 105.125ZM196.55 102.25C197.3 102.833 198.05 103.042 198.8 102.875C199.133 102.792 199.342 102.708 199.425 102.625C200.008 102.375 200.342 102.167 200.425 102L199.425 101.875L199.175 102C198.842 102.083 198.55 102.125 198.3 102.125C198.217 102.125 197.633 102.167 196.55 102.25ZM136.175 29.875C136.925 28.7917 137.3 28.2083 137.3 28.125C137.467 27.875 137.842 27.2917 138.425 26.375C139.008 25.375 139.467 24.625 139.8 24.125C139.883 24.0417 139.925 24 139.925 24C139.925 23.8333 139.883 23.7083 139.8 23.625C139.717 23.625 139.633 23.6667 139.55 23.75C139.55 23.8333 139.467 24 139.3 24.25C138.717 25.4167 138.383 26 138.3 26C137.55 27.3333 136.925 28.4167 136.425 29.25C136.258 29.5833 136.175 29.7917 136.175 29.875ZM177.05 22.25C176.967 22.75 176.967 23.0417 177.05 23.125C177.05 23.2917 177.133 23.375 177.3 23.375C177.633 23.2083 178.008 23.0833 178.425 23C178.592 22.9167 178.592 22.8333 178.425 22.75C178.008 22.25 177.592 21.7917 177.175 21.375C177.175 21.2917 177.133 21.2917 177.05 21.375C177.05 21.5417 177.05 21.8333 177.05 22.25ZM133.925 97.5C134.342 98.4167 134.55 98.9167 134.55 99C134.633 99.1667 134.925 99.5417 135.425 100.125C135.425 100.208 135.467 100.25 135.55 100.25C135.717 100.25 135.842 100.208 135.925 100.125C136.008 100.042 136.008 99.9583 135.925 99.875C135.842 99.7917 135.758 99.7083 135.675 99.625C135.092 99.0417 134.675 98.4583 134.425 97.875C134.258 97.625 134.092 97.5 133.925 97.5ZM181.425 102.25C179.508 102.25 178.342 102.25 177.925 102.25C177.842 102.25 177.758 102.25 177.675 102.25C177.592 102.333 177.55 102.417 177.55 102.5C177.55 102.5 177.592 102.542 177.675 102.625C177.675 102.625 177.717 102.625 177.8 102.625C177.967 102.542 178.217 102.5 178.55 102.5C178.883 102.5 179.133 102.5 179.3 102.5C179.55 102.5 179.842 102.5 180.175 102.5C180.758 102.5 181.175 102.417 181.425 102.25ZM169.675 27.875C169.758 27.875 169.8 27.875 169.8 27.875C170.217 27.375 170.508 27 170.675 26.75C170.758 26.6667 170.8 26.5833 170.8 26.5C170.8 26.4167 170.8 26.375 170.8 26.375H170.675C170.425 26.5417 170.3 26.625 170.3 26.625C170.217 26.7917 170.008 27.125 169.675 27.625C169.592 27.7083 169.592 27.7917 169.675 27.875ZM150.05 10.125C150.05 10.625 149.842 10.8333 149.425 10.75C149.342 10.75 149.3 10.7917 149.3 10.875C149.3 10.9583 149.342 11.0417 149.425 11.125C149.592 11.125 149.758 11.0833 149.925 11C150.342 10.8333 150.55 10.7083 150.55 10.625C150.55 10.5417 150.383 10.375 150.05 10.125ZM188.3 43.5C188.3 43.25 188.3 43.125 188.3 43.125C188.217 43.125 188.175 43.125 188.175 43.125C187.925 43.375 187.758 43.625 187.675 43.875C187.675 43.9583 187.717 44 187.8 44C188.05 44.1667 188.217 44.125 188.3 43.875C188.3 43.875 188.3 43.75 188.3 43.5ZM200.8 98.625C200.8 98.5417 200.8 98.5 200.8 98.5C200.717 98.4167 200.55 98.2917 200.3 98.125C200.217 98.0417 200.175 98.0417 200.175 98.125C200.008 98.375 200.05 98.5833 200.3 98.75C200.55 99 200.717 98.9583 200.8 98.625ZM163.675 105.25C164.925 105.25 165.717 105.25 166.05 105.25C166.217 105.25 166.258 105.208 166.175 105.125C165.258 105.042 164.425 105.083 163.675 105.25ZM147.175 10C147.092 10 147.05 10.0417 147.05 10.125C146.967 10.375 147.05 10.5833 147.3 10.75C147.3 10.75 147.342 10.75 147.425 10.75C147.508 10.75 147.55 10.75 147.55 10.75C147.633 10.6667 147.633 10.5833 147.55 10.5C147.467 10.3333 147.383 10.2083 147.3 10.125C147.3 10.125 147.258 10.0833 147.175 10ZM190.925 39.5C191.092 39.5 191.175 39.4583 191.175 39.375C191.092 39.125 190.925 38.9583 190.675 38.875C190.592 38.7917 190.508 38.875 190.425 39.125C190.342 39.2083 190.383 39.2917 190.55 39.375C190.633 39.375 190.758 39.4167 190.925 39.5ZM187.8 65.375C187.717 65.7083 187.675 65.9167 187.675 66C187.675 66.0833 187.758 66.125 187.925 66.125C188.092 66.125 188.175 66.0417 188.175 65.875C188.092 65.625 187.967 65.4583 187.8 65.375ZM195.175 43.125C195.008 43.125 194.925 43.1667 194.925 43.25C194.925 43.5 195.008 43.625 195.175 43.625C195.342 43.625 195.425 43.5417 195.425 43.375C195.425 43.2083 195.342 43.125 195.175 43.125ZM133.425 47.5C133.342 47.5833 133.342 47.7083 133.425 47.875C133.425 47.7917 133.425 47.6667 133.425 47.5ZM265.35 31C264.35 31.9167 263.725 32.5417 263.475 32.875C263.475 33.0417 263.225 33.375 262.725 33.875C262.725 33.9583 262.683 34 262.6 34C262.183 34 261.808 34.2917 261.475 34.875C261.225 35.125 260.975 35.2917 260.725 35.375C259.808 35.875 259.058 36.1667 258.475 36.25C257.975 36.3333 257.6 36.1667 257.35 35.75C257.183 35.5 256.975 35.1667 256.725 34.75C256.558 34.5 256.642 34.2917 256.975 34.125C257.058 34.125 257.142 34.0833 257.225 34C257.642 33.9167 258.017 33.6667 258.35 33.25C259.1 32.3333 259.517 31.8333 259.6 31.75C259.767 31.4167 260.017 31 260.35 30.5C260.767 30 261.058 29.625 261.225 29.375C261.392 29.2083 261.85 28.6667 262.6 27.75C263.433 26.8333 264.183 25.75 264.85 24.5C264.933 24.3333 265.017 24.1667 265.1 24C265.267 23.75 265.392 23.5833 265.475 23.5C266.558 21.75 267.308 20.1667 267.725 18.75C267.808 18.5 268.017 17.9167 268.35 17C268.6 16.25 268.808 15.6667 268.975 15.25C269.392 13.5833 270.017 11.75 270.85 9.75C270.933 9.58333 271.058 9.29167 271.225 8.875C271.475 8.45833 271.642 8.16667 271.725 8C272.058 7.25 272.308 6.375 272.475 5.375C272.475 5.125 272.558 4.54167 272.725 3.625C272.725 3.45833 272.767 3.16667 272.85 2.75C272.85 2.66667 272.85 2.58333 272.85 2.5C272.85 2.41667 272.85 2.33333 272.85 2.25C272.85 1.91667 272.892 1.70833 272.975 1.625C273.058 1.54167 273.267 1.58333 273.6 1.75C274.017 1.91667 274.475 1.95833 274.975 1.875C275.475 1.70833 275.892 1.875 276.225 2.375C276.642 2.875 277.1 3.5 277.6 4.25C278.1 5 278.933 5.95833 280.1 7.125C280.267 7.20833 280.433 7.33333 280.6 7.5C280.933 7.66667 281.975 8.41667 283.725 9.75C284.308 10.1667 284.642 10.4167 284.725 10.5C285.058 10.75 285.267 11.0417 285.35 11.375C285.35 11.7917 285.475 12.1667 285.725 12.5C285.725 12.5833 285.767 12.6667 285.85 12.75C285.933 13 285.85 13.1667 285.6 13.25C285.517 13.3333 285.433 13.375 285.35 13.375C285.267 13.4583 284.975 13.5833 284.475 13.75C284.058 13.8333 283.725 13.9167 283.475 14C283.225 14 282.808 14.0833 282.225 14.25C281.642 14.3333 281.183 14.4167 280.85 14.5C280.6 14.5 280.433 14.625 280.35 14.875C279.6 16.0417 279.058 16.9167 278.725 17.5C278.725 17.6667 278.308 18.5833 277.475 20.25C277.475 20.4167 277.225 20.8333 276.725 21.5C276.558 21.75 276.433 21.9583 276.35 22.125C276.267 22.2917 276.35 22.4167 276.6 22.5C277.1 22.5 277.433 22.5 277.6 22.5C278.85 22.5 279.6 22.5 279.85 22.5C279.933 22.5 280.225 22.5 280.725 22.5C284.558 22.5 286.6 22.5 286.85 22.5C288.35 22.4167 289.35 22.375 289.85 22.375C290.017 22.2917 290.892 22.2083 292.475 22.125C293.142 22.125 293.6 22.0833 293.85 22C293.933 22 294.017 22 294.1 22C294.433 22.0833 294.683 21.9583 294.85 21.625C294.933 21.2917 295.142 20.6667 295.475 19.75C295.558 19.5833 295.6 19.5 295.6 19.5C295.683 18.9167 295.933 17.875 296.35 16.375C296.433 15.875 296.517 15.5833 296.6 15.5C296.683 15.1667 296.85 15.0833 297.1 15.25C297.6 15.5833 298.267 15.6667 299.1 15.5C299.433 15.4167 299.725 15.5417 299.975 15.875C300.225 16.2083 301.225 17.3333 302.975 19.25C303.142 19.5 303.517 19.9167 304.1 20.5C305.767 22.0833 307.058 23.25 307.975 24C308.225 24.1667 308.517 24.3333 308.85 24.5C309.183 24.6667 309.392 24.9583 309.475 25.375C309.558 25.7083 309.683 26.0833 309.85 26.5C310.1 26.8333 310.017 27.0833 309.6 27.25C308.433 27.9167 307.392 28.4583 306.475 28.875C305.975 29.2083 305.225 29.4583 304.225 29.625C304.058 29.625 303.85 29.6667 303.6 29.75C303.35 29.8333 303.225 30 303.225 30.25C303.225 30.5833 303.142 31.6667 302.975 33.5C302.808 35.25 302.6 36.75 302.35 38C302.267 38.5833 302.142 39.4167 301.975 40.5C301.892 41.5833 301.808 42.2083 301.725 42.375C301.725 42.5417 301.725 42.7917 301.725 43.125C301.725 43.4583 301.683 43.7083 301.6 43.875C301.6 44.0417 301.558 44.25 301.475 44.5C301.475 44.6667 301.433 44.875 301.35 45.125C301.35 45.375 301.35 45.5833 301.35 45.75C301.267 46.1667 301.267 46.5 301.35 46.75C301.6 47.3333 301.808 48.2083 301.975 49.375C302.225 50.4583 302.392 51.1667 302.475 51.5C302.725 52.4167 302.808 53.4583 302.725 54.625C302.725 54.7083 302.767 54.9583 302.85 55.375C302.933 55.7083 302.85 56 302.6 56.25C302.267 56.75 301.892 57.0833 301.475 57.25C300.808 57.4167 300.392 57.5417 300.225 57.625C300.058 57.625 299.892 57.625 299.725 57.625C299.642 57.7083 298.892 57.875 297.475 58.125C297.225 58.2083 296.892 58.2917 296.475 58.375C296.058 58.375 295.808 58.375 295.725 58.375C294.725 58.5417 293.933 58.7917 293.35 59.125C292.85 59.4583 292.35 59.75 291.85 60C291.6 60.0833 291.392 60.1667 291.225 60.25C290.642 60.5833 289.975 60.8333 289.225 61C289.225 61 289.017 61.0417 288.6 61.125C288.6 61.2083 288.683 61.25 288.85 61.25C291.017 61.25 292.35 61.25 292.85 61.25C293.267 61.25 293.808 61.1667 294.475 61C296.058 60.6667 297.183 60.4583 297.85 60.375C298.683 60.2917 299.267 60.25 299.6 60.25C299.683 60.25 300.183 60.2083 301.1 60.125C302.017 60.0417 302.683 60.0417 303.1 60.125C303.267 60.125 303.433 60.125 303.6 60.125C303.85 60.0417 304.017 60 304.1 60C304.433 60.0833 304.683 59.9167 304.85 59.5C305.517 58.25 306.017 57.0417 306.35 55.875C306.433 55.5417 306.642 54.9167 306.975 54C307.058 53.8333 307.225 53.75 307.475 53.75C307.558 53.8333 307.6 53.875 307.6 53.875C308.1 54.125 308.725 54.1667 309.475 54C309.892 53.9167 310.225 54.0417 310.475 54.375C310.558 54.5417 310.6 54.625 310.6 54.625C310.683 54.625 311.1 55.0417 311.85 55.875C312.017 56.0417 312.308 56.2917 312.725 56.625C313.142 56.9583 313.433 57.2083 313.6 57.375C314.017 57.7917 315.225 58.7083 317.225 60.125C317.308 60.2083 317.475 60.375 317.725 60.625C317.975 60.7917 318.183 60.9167 318.35 61C319.017 61.5 319.517 61.8333 319.85 62C320.183 62.0833 320.392 62.2917 320.475 62.625C320.475 63.125 320.6 63.5417 320.85 63.875C320.933 63.9583 320.975 64.0417 320.975 64.125C321.058 64.375 321.017 64.5417 320.85 64.625C320.767 64.7083 320.642 64.7917 320.475 64.875C320.392 64.875 320.35 64.875 320.35 64.875C318.683 65.875 317.808 66.375 317.725 66.375C316.558 66.9583 315.683 67.2917 315.1 67.375C314.85 67.375 314.558 67.4583 314.225 67.625C313.892 67.7083 313.683 67.75 313.6 67.75C313.267 67.8333 313.058 68.0417 312.975 68.375C312.975 68.4583 312.933 68.5833 312.85 68.75C312.85 68.8333 312.85 68.9167 312.85 69C312.6 69.9167 312.392 71.0417 312.225 72.375C312.225 72.7083 312.142 73.125 311.975 73.625C311.975 73.625 311.892 73.9583 311.725 74.625C311.725 74.875 311.725 75.0417 311.725 75.125C311.475 75.7083 311.183 76.5833 310.85 77.75C310.6 78.9167 310.433 79.7083 310.35 80.125C310.267 80.2917 310.142 80.7083 309.975 81.375C309.808 81.9583 309.683 82.4167 309.6 82.75C309.35 83.4167 309.267 84.2083 309.35 85.125C309.35 85.875 309.308 86.875 309.225 88.125C309.225 88.7917 309.183 89.5417 309.1 90.375C309.017 90.7917 309.058 91.4583 309.225 92.375C309.392 92.9583 309.558 93.7917 309.725 94.875C309.975 95.875 310.1 96.4583 310.1 96.625C310.183 96.7917 310.225 96.9583 310.225 97.125C310.225 97.625 310.267 98.5833 310.35 100C310.433 102.25 310.475 103.417 310.475 103.5C310.475 103.583 310.475 103.667 310.475 103.75C310.475 103.917 310.475 104.042 310.475 104.125C310.558 104.792 310.225 105.25 309.475 105.5C308.892 105.667 308.392 105.792 307.975 105.875C307.392 106.042 306.433 106.208 305.1 106.375C304.85 106.458 304.6 106.542 304.35 106.625C303.85 106.792 303.433 106.875 303.1 106.875C302.85 106.958 302.433 107.042 301.85 107.125C301.267 107.292 300.85 107.417 300.6 107.5C300.35 107.5 300.058 107.542 299.725 107.625C299.475 107.708 299.142 107.792 298.725 107.875C298.392 107.958 298.142 108.042 297.975 108.125C297.392 108.208 296.975 108.292 296.725 108.375C295.642 108.458 294.767 108.583 294.1 108.75C293.933 108.833 293.558 108.875 292.975 108.875C292.642 108.875 292.392 108.958 292.225 109.125C291.475 109.542 290.683 109.792 289.85 109.875C289.767 109.875 289.308 110 288.475 110.25C288.142 110.333 287.933 110.25 287.85 110C287.767 109.917 287.517 109.75 287.1 109.5C286.85 109.417 286.725 109.292 286.725 109.125C286.475 108.625 286.183 108.125 285.85 107.625C285.6 107.375 285.6 107.125 285.85 106.875C286.267 106.125 286.6 105.083 286.85 103.75C286.933 103.583 287.058 103 287.225 102C287.392 101.083 287.517 100.375 287.6 99.875C287.683 99.7083 287.725 99.375 287.725 98.875C287.725 98.625 287.558 98.4167 287.225 98.25C287.142 98.25 287.017 98.25 286.85 98.25C285.683 98.0833 284.725 97.9167 283.975 97.75C283.808 97.75 283.642 97.75 283.475 97.75C282.642 97.8333 281.683 97.6667 280.6 97.25C280.35 97.1667 280.017 97.0417 279.6 96.875C279.183 96.7083 278.933 96.5833 278.85 96.5C278.6 96.4167 278.267 96.25 277.85 96C277.433 95.6667 277.183 95.5 277.1 95.5C277.017 95.4167 276.933 95.2917 276.85 95.125C276.683 94.7917 276.433 94.375 276.1 93.875C276.017 93.875 275.933 93.8333 275.85 93.75C275.85 93.5833 275.892 93.4583 275.975 93.375C276.058 93.2917 276.142 93.25 276.225 93.25C276.392 93.3333 276.558 93.375 276.725 93.375C277.142 93.625 277.642 93.7083 278.225 93.625C278.558 93.5417 278.892 93.5417 279.225 93.625C279.642 93.7917 280.642 94.125 282.225 94.625C282.642 94.7083 283.058 94.75 283.475 94.75C283.808 94.75 284.767 94.875 286.35 95.125C287.6 95.2917 288.475 95.4167 288.975 95.5C289.808 95.75 290.392 95.9167 290.725 96C292.142 96.4167 293.35 96.625 294.35 96.625C294.6 96.5417 294.933 96.5417 295.35 96.625C295.517 96.625 295.683 96.6667 295.85 96.75C296.1 96.75 296.267 96.75 296.35 96.75C296.767 96.75 297.017 96.5417 297.1 96.125C297.183 96.125 297.267 96 297.35 95.75C297.433 95.5 297.475 95.2917 297.475 95.125C297.892 93.625 298.142 92.4583 298.225 91.625C298.308 90.9583 298.392 90.0417 298.475 88.875C298.475 88.4583 298.517 88.125 298.6 87.875C298.933 86.7917 299.183 85.5417 299.35 84.125C299.517 83.0417 299.683 81.9167 299.85 80.75C300.433 77.75 301.017 75.25 301.6 73.25C303.017 67.6667 303.808 64.625 303.975 64.125C304.058 63.7917 304.058 63.5833 303.975 63.5C303.975 63.3333 303.767 63.2917 303.35 63.375C300.6 63.5417 298.392 63.7917 296.725 64.125C296.142 64.2917 295.517 64.375 294.85 64.375C293.767 64.375 291.933 64.4167 289.35 64.5C289.267 64.5 289.142 64.5 288.975 64.5C288.808 64.5 288.725 64.5 288.725 64.5C288.225 64.5833 287.933 64.625 287.85 64.625C287.767 64.625 286.85 64.7083 285.1 64.875C284.767 64.875 284.225 64.9167 283.475 65C282.725 65 282.142 65.0417 281.725 65.125C281.058 65.2083 280.017 65.25 278.6 65.25C277.267 65.25 276.392 65.25 275.975 65.25C275.558 65.25 275.225 65.2917 274.975 65.375C274.892 65.4583 274.767 65.5 274.6 65.5C274.267 65.5 273.767 65.5833 273.1 65.75C272.517 65.9167 272.058 66 271.725 66C271.725 66 271.642 66.0417 271.475 66.125C271.308 66.125 271.267 66.2083 271.35 66.375C271.35 66.875 271.392 67.2083 271.475 67.375C271.558 67.7917 271.433 68.1667 271.1 68.5C270.6 68.9167 270.1 69.25 269.6 69.5C269.267 69.6667 269.017 69.8333 268.85 70C268.517 70.25 268.017 70.4583 267.35 70.625C267.183 70.625 266.975 70.6667 266.725 70.75C266.558 70.8333 266.308 70.9167 265.975 71C265.725 71 265.517 71.0417 265.35 71.125C265.267 71.125 265.183 71.2083 265.1 71.375C264.933 71.625 264.683 71.7083 264.35 71.625C264.1 71.4583 263.85 71.4583 263.6 71.625C263.517 71.7917 263.433 71.875 263.35 71.875C263.183 72.0417 263.017 72.0417 262.85 71.875C262.6 71.7083 262.35 71.5417 262.1 71.375C261.933 71.2917 261.808 71.1667 261.725 71C261.392 70.5 261.142 70.125 260.975 69.875C260.808 69.5417 260.767 69.2083 260.85 68.875C260.85 68.7917 260.85 68.75 260.85 68.75C261.017 68.25 261.183 67.5417 261.35 66.625C261.6 65.7083 261.725 65.1667 261.725 65C261.892 64.3333 261.975 63.75 261.975 63.25C261.975 63 262.058 62.4167 262.225 61.5C262.225 61.25 262.225 60.875 262.225 60.375C262.308 59.7917 262.35 59.4583 262.35 59.375C262.433 58.7917 262.517 58.25 262.6 57.75C262.767 56.5833 262.85 55.7083 262.85 55.125C262.85 54.5417 262.933 53.8333 263.1 53C263.267 51.8333 263.475 50.2917 263.725 48.375C263.808 47.7917 263.933 46.9583 264.1 45.875C264.267 44.7917 264.35 44.125 264.35 43.875C264.6 42.0417 264.725 40.6667 264.725 39.75C264.808 39.25 264.767 38.7917 264.6 38.375C264.517 37.7917 264.558 37.0833 264.725 36.25C264.808 35.75 264.892 35.0417 264.975 34.125C265.058 33.2083 265.142 32.5833 265.225 32.25C265.225 32.1667 265.225 32.0417 265.225 31.875C265.225 31.7083 265.225 31.5833 265.225 31.5C265.308 31.5 265.35 31.3333 265.35 31ZM276.35 62C276.517 62 277.142 62 278.225 62C279.392 61.9167 280.308 61.875 280.975 61.875C282.725 61.7083 283.767 61.5833 284.1 61.5C284.683 61.4167 285.183 61.375 285.6 61.375C285.6 61.375 285.683 61.375 285.85 61.375V61.25C285.767 61.25 285.6 61.25 285.35 61.25C285.1 61.25 284.933 61.2083 284.85 61.125C284.683 60.9583 284.433 60.7917 284.1 60.625C283.933 60.5417 283.808 60.4167 283.725 60.25C283.392 59.6667 283.183 59.2917 283.1 59.125C282.85 58.7917 282.85 58.4583 283.1 58.125C283.183 57.875 283.225 57.6667 283.225 57.5C283.475 55.8333 283.6 54.875 283.6 54.625C283.683 53.625 283.6 52.7917 283.35 52.125C283.35 52.0417 283.308 51.875 283.225 51.625C283.225 51.375 283.225 51.2083 283.225 51.125C283.142 50.875 283.017 50.75 282.85 50.75C281.433 50.25 280.642 50 280.475 50C280.308 49.9167 280.017 49.8333 279.6 49.75C279.183 49.5833 278.85 49.4583 278.6 49.375C278.267 49.2917 277.558 48.9167 276.475 48.25C276.308 48.1667 276.142 48 275.975 47.75C275.892 47.4167 275.808 47.2083 275.725 47.125C275.725 47.125 275.683 47.0417 275.6 46.875C275.35 46.5417 275.267 46.3333 275.35 46.25C275.433 46.0833 275.683 46.0833 276.1 46.25C276.6 46.4167 277.142 46.4583 277.725 46.375C278.058 46.2917 278.392 46.3333 278.725 46.5C279.392 46.6667 280.017 46.8333 280.6 47C281.517 47.1667 282.85 47.5417 284.6 48.125C285.6 48.5417 286.35 48.75 286.85 48.75C286.933 48.6667 287.058 48.6667 287.225 48.75C287.392 48.75 287.767 48.7917 288.35 48.875C289.017 48.9583 289.517 49.0833 289.85 49.25C289.933 49.25 290.017 49.25 290.1 49.25C290.267 49.25 290.433 49.1667 290.6 49C290.767 48.8333 290.85 48.6667 290.85 48.5C290.85 48.4167 290.85 48.2917 290.85 48.125C290.933 47.875 290.975 47.7083 290.975 47.625C291.225 46.125 291.6 44.4583 292.1 42.625C292.183 42.0417 292.35 41.2917 292.6 40.375C292.6 40.2917 292.642 40 292.725 39.5C292.808 38.9167 292.933 38.4583 293.1 38.125C293.517 36.7917 293.85 35 294.1 32.75C294.35 30.5 294.6 28.75 294.85 27.5C295.1 26.5833 295.225 26.0833 295.225 26C295.225 25.75 295.1 25.625 294.85 25.625C294.683 25.5417 294.475 25.5 294.225 25.5C294.142 25.5833 293.767 25.625 293.1 25.625C292.517 25.625 292.058 25.6667 291.725 25.75C290.475 25.75 289.808 25.75 289.725 25.75C289.392 25.8333 288.975 25.8333 288.475 25.75C288.142 25.75 287.892 25.75 287.725 25.75C284.225 25.6667 281.642 25.625 279.975 25.625C279.142 25.625 278.142 25.5833 276.975 25.5C276.392 25.4167 275.892 25.375 275.475 25.375C275.392 25.4583 274.808 25.5833 273.725 25.75C273.558 25.75 273.475 25.875 273.475 26.125C273.475 26.375 273.6 26.7083 273.85 27.125C273.933 27.375 273.892 27.5417 273.725 27.625C273.475 27.7083 273.35 27.875 273.35 28.125C273.433 28.625 273.433 29.2917 273.35 30.125C273.267 30.9583 273.225 31.5833 273.225 32C273.225 32.25 273.225 32.5 273.225 32.75C273.225 33 273.183 33.2917 273.1 33.625C273.1 33.9583 273.1 34.2083 273.1 34.375C273.1 34.7917 273.058 35.375 272.975 36.125C272.892 36.375 272.808 36.875 272.725 37.625C272.642 38.2917 272.6 38.8333 272.6 39.25C272.433 40.6667 272.142 42.5 271.725 44.75C271.558 45.6667 271.475 46.3333 271.475 46.75C271.475 47 271.433 47.375 271.35 47.875C271.35 48.375 271.35 48.7083 271.35 48.875C271.183 50.2917 271.1 51.3333 271.1 52C271.017 52.5 270.975 53.2083 270.975 54.125C270.975 55.0417 270.933 55.7083 270.85 56.125C270.85 56.625 270.808 57.125 270.725 57.625C270.725 57.7083 270.642 58.2083 270.475 59.125C270.308 60.0417 270.183 60.75 270.1 61.25C270.1 61.3333 270.1 61.4167 270.1 61.5C270.1 61.75 270.1 61.9583 270.1 62.125C270.1 62.2083 270.142 62.2917 270.225 62.375C270.392 62.4583 270.642 62.4583 270.975 62.375C271.808 62.2083 272.642 62.0833 273.475 62C273.642 62 274.6 62 276.35 62ZM279.475 10.375C279.475 10.2917 279.433 10.25 279.35 10.25C279.267 10.1667 279.225 10.125 279.225 10.125C279.142 10.0417 278.808 9.79167 278.225 9.375C277.725 8.95833 277.392 8.625 277.225 8.375C277.142 8.375 277.1 8.375 277.1 8.375C277.017 8.375 276.975 8.41667 276.975 8.5C276.975 8.66667 277.017 8.75 277.1 8.75C277.267 9.08333 277.225 9.45833 276.975 9.875C276.975 9.95833 276.892 10.0833 276.725 10.25C276.642 10.4167 276.6 10.5417 276.6 10.625C276.433 10.9583 276.392 11.2083 276.475 11.375C276.475 11.5417 276.475 11.625 276.475 11.625C276.558 11.5417 276.642 11.5 276.725 11.5C276.725 11.4167 276.767 11.25 276.85 11C277.017 10.75 277.1 10.5833 277.1 10.5C277.183 10.25 277.35 10.2083 277.6 10.375C277.683 10.375 277.767 10.4167 277.85 10.5C277.933 10.5 278.017 10.5 278.1 10.5C278.683 10.6667 279.142 10.625 279.475 10.375ZM299.35 26.5C299.35 26.4167 299.392 26.3333 299.475 26.25C299.642 26 299.767 25.8333 299.85 25.75C300.1 25.5 300.142 25.2083 299.975 24.875C299.725 24.5417 299.642 24.1667 299.725 23.75C299.725 23.75 299.725 23.625 299.725 23.375C299.642 22.2917 299.642 21.4167 299.725 20.75C299.808 20.6667 299.808 20.5833 299.725 20.5C299.475 21.5 299.267 22.0833 299.1 22.25C298.85 22.8333 298.85 23.4583 299.1 24.125C299.35 24.5417 299.433 25.0417 299.35 25.625C299.267 26.0417 299.267 26.3333 299.35 26.5ZM302.1 23.125C302.1 23.2083 302.1 23.2917 302.1 23.375C302.267 24.2917 302.517 24.9583 302.85 25.375C303.017 25.625 303.225 25.7083 303.475 25.625C303.725 25.4583 303.933 25.3333 304.1 25.25C304.267 25.0833 304.267 24.9167 304.1 24.75C304.017 24.6667 303.892 24.5417 303.725 24.375C303.392 24.0417 302.975 23.6667 302.475 23.25C302.392 23.0833 302.308 23 302.225 23C302.225 22.9167 302.183 22.9167 302.1 23C302.1 23 302.1 23.0417 302.1 23.125ZM312.225 60.5C312.142 60.5 312.1 60.5 312.1 60.5C312.183 60.8333 312.308 61.0417 312.475 61.125C312.892 61.4583 313.183 61.9583 313.35 62.625C313.517 63.125 313.808 63.25 314.225 63C314.308 62.9167 314.433 62.7917 314.6 62.625C314.767 62.5417 314.767 62.4583 314.6 62.375C314.6 62.2917 314.517 62.2083 314.35 62.125C313.517 61.375 312.85 60.8333 312.35 60.5C312.35 60.5 312.308 60.5 312.225 60.5ZM303.975 84.625C304.058 84.5417 304.1 84.5 304.1 84.5C304.6 82.6667 305.1 80.875 305.6 79.125C305.6 78.9583 305.642 78.8333 305.725 78.75C305.725 78.5 305.642 78.375 305.475 78.375C305.308 78.375 305.183 78.4583 305.1 78.625C304.85 79.7083 304.725 80.375 304.725 80.625C304.475 82.125 304.267 83.2083 304.1 83.875C304.017 84.2917 303.975 84.5417 303.975 84.625ZM297.475 41C297.558 40.9167 297.6 40.875 297.6 40.875C297.683 39.7917 297.892 38.3333 298.225 36.5C298.308 36.3333 298.35 35.9583 298.35 35.375C298.433 35.2083 298.392 35.125 298.225 35.125C298.225 35.2083 298.183 35.4167 298.1 35.75C298.017 36 297.975 36.2083 297.975 36.375C297.975 37.125 297.767 38.1667 297.35 39.5C297.183 40 297.225 40.5 297.475 41ZM293.1 55C293.683 55.3333 294.308 55.3333 294.975 55C295.558 54.6667 296.058 54.375 296.475 54.125C296.808 53.9583 297.017 53.75 297.1 53.5C296.85 53.6667 296.642 53.7917 296.475 53.875C296.225 54.125 295.892 54.2917 295.475 54.375C295.392 54.375 295.1 54.4583 294.6 54.625C294.183 54.7083 293.808 54.7917 293.475 54.875C293.225 54.875 293.1 54.9167 293.1 55ZM272.1 19.875C272.6 19.2917 272.892 19 272.975 19C273.142 18.75 273.308 18.4583 273.475 18.125C273.642 17.7917 273.6 17.5833 273.35 17.5C273.1 17.4167 272.933 17.5 272.85 17.75C272.85 17.8333 272.725 18.1667 272.475 18.75C272.308 19.25 272.183 19.625 272.1 19.875ZM266.1 65.75V65.875C266.1 66.0417 266.142 66.1667 266.225 66.25C266.308 66.25 266.433 66.1667 266.6 66C266.683 65.9167 266.767 65.8333 266.85 65.75C267.017 65.5833 267.017 65.4583 266.85 65.375C266.683 65.2917 266.558 65.25 266.475 65.25C266.308 65.1667 266.183 65.2083 266.1 65.375C266.1 65.4583 266.1 65.5417 266.1 65.625C266.1 65.7083 266.1 65.75 266.1 65.75ZM240.1 56.625C240.1 58.875 240.1 60.0833 240.1 60.25C240.1 61.0833 240.058 61.9583 239.975 62.875C239.892 63.4583 239.85 64.0833 239.85 64.75C239.85 65.0833 239.85 65.625 239.85 66.375C239.85 67.0417 239.85 67.5833 239.85 68C239.85 68.1667 239.808 68.5 239.725 69C239.725 69.4167 239.725 69.6667 239.725 69.75C239.725 70.4167 239.725 70.9167 239.725 71.25C239.642 72.6667 239.6 73.4583 239.6 73.625C239.6 73.7083 239.6 73.875 239.6 74.125C239.6 74.2917 239.6 74.4167 239.6 74.5C239.683 74.5 239.808 74.4583 239.975 74.375C240.475 74.0417 240.933 73.7083 241.35 73.375C241.85 72.9583 242.6 72.5 243.6 72C243.85 71.9167 244.058 71.8333 244.225 71.75C244.558 71.75 244.85 71.625 245.1 71.375C245.6 70.9583 246.1 70.625 246.6 70.375C246.85 70.2917 247.017 70.2083 247.1 70.125C247.433 69.875 247.933 69.5833 248.6 69.25C249.017 69 249.475 68.6667 249.975 68.25C250.558 67.75 251.308 67.2083 252.225 66.625C253.892 65.4583 255.058 64.5417 255.725 63.875C255.975 63.625 256.475 63.4583 257.225 63.375C257.475 63.375 257.642 63.5 257.725 63.75C257.892 64.25 258.017 64.5833 258.1 64.75C258.183 64.9167 258.142 65.0417 257.975 65.125C257.142 66.2917 256.558 67 256.225 67.25C255.308 68 254.558 68.5833 253.975 69C252.558 70.0833 251.433 71.25 250.6 72.5C250.517 72.5833 250.433 72.6667 250.35 72.75C250.35 72.8333 250.308 72.9583 250.225 73.125C250.142 73.2083 250.1 73.2917 250.1 73.375C249.85 73.7083 249.225 74.375 248.225 75.375C247.475 76.0417 246.642 76.75 245.725 77.5C245.475 77.75 245.225 78.0833 244.975 78.5C244.475 79.25 243.933 79.9583 243.35 80.625C243.1 80.875 242.767 81.25 242.35 81.75C241.933 82.1667 241.6 82.5 241.35 82.75C241.183 82.9167 240.517 83.5417 239.35 84.625C237.6 86.2083 236.517 87.25 236.1 87.75C235.433 88.6667 234.642 89.5 233.725 90.25C232.975 91 232.433 91.6667 232.1 92.25C232.017 92.3333 231.933 92.4583 231.85 92.625C231.767 92.7083 231.642 92.8333 231.475 93C231.392 93.1667 231.308 93.2917 231.225 93.375C231.142 93.4583 230.85 93.875 230.35 94.625C229.85 95.2917 229.475 95.7917 229.225 96.125C228.725 96.625 228.1 97.5 227.35 98.75C227.267 99 227.142 99.2083 226.975 99.375C226.808 99.5417 226.6 99.625 226.35 99.625C226.1 99.5417 225.808 99.5833 225.475 99.75C225.225 99.9167 224.933 99.9167 224.6 99.75C223.933 99.4167 223.433 98.9167 223.1 98.25C223.1 98.0833 223.017 97.875 222.85 97.625C222.683 97.375 222.558 97.1667 222.475 97C222.308 96.5833 222.1 96.2083 221.85 95.875C221.267 95.0417 220.85 94.1667 220.6 93.25C220.267 92 219.642 90.6667 218.725 89.25C218.142 88.4167 217.642 87.7917 217.225 87.375C217.225 87.375 217.183 87.3333 217.1 87.25C217.1 87.1667 217.1 87.125 217.1 87.125C216.85 86.9583 216.642 86.7917 216.475 86.625C216.392 86.375 216.267 86.125 216.1 85.875C215.933 85.625 215.808 85.4167 215.725 85.25C215.725 85.25 215.683 85.2083 215.6 85.125C215.6 85.0417 215.6 85 215.6 85C215.683 84.9167 215.767 84.875 215.85 84.875C216.017 84.875 216.142 84.875 216.225 84.875C216.558 85.0417 216.933 85.0833 217.35 85C218.517 84.8333 219.517 84.5833 220.35 84.25C220.6 84.1667 220.975 84 221.475 83.75C222.058 83.5 222.433 83.375 222.6 83.375C223.183 83.125 223.642 83 223.975 83C224.225 83 224.517 82.875 224.85 82.625C225.183 82.4583 225.683 82.1667 226.35 81.75C227.1 81.3333 227.683 81 228.1 80.75C229.517 79.9167 230.475 79.4167 230.975 79.25C231.392 79.0833 231.892 78.7917 232.475 78.375C232.725 78.2083 232.767 78 232.6 77.75C232.517 77.6667 232.475 77.5833 232.475 77.5C232.142 77.1667 232.017 76.6667 232.1 76C232.183 75.6667 232.267 75.1667 232.35 74.5C232.433 73.8333 232.475 73.3333 232.475 73C232.642 72.1667 232.725 71.25 232.725 70.25C232.642 68.5833 232.642 67.5417 232.725 67.125C232.725 66.0417 232.767 64.7917 232.85 63.375C232.933 63.2083 232.975 62.2917 232.975 60.625C232.975 60.2083 232.975 59.5417 232.975 58.625C232.975 57.625 232.975 56.9167 232.975 56.5C232.975 55.75 232.892 54.4167 232.725 52.5C232.725 52.1667 232.683 51.25 232.6 49.75C232.6 49.4167 232.6 48.375 232.6 46.625C232.6 46.4583 232.6 46.3333 232.6 46.25C232.6 46 232.475 45.8333 232.225 45.75C232.058 45.75 231.85 45.7083 231.6 45.625C230.183 45.4583 229.1 45.375 228.35 45.375C227.85 45.375 227.058 45.3333 225.975 45.25C225.642 45.1667 225.35 45.2083 225.1 45.375C223.85 46.4583 223.142 47.0833 222.975 47.25C222.892 47.3333 222.475 47.75 221.725 48.5C221.642 48.5833 221.558 48.5833 221.475 48.5C221.225 48.3333 221.017 48.375 220.85 48.625C220.767 48.625 220.683 48.6667 220.6 48.75C220.433 48.8333 220.308 48.8333 220.225 48.75C219.475 48.3333 218.892 47.75 218.475 47C218.142 46.4167 217.85 45.7083 217.6 44.875C217.267 43.9583 216.975 43.3333 216.725 43C216.558 42.6667 216.642 42.4583 216.975 42.375C217.475 42.2917 217.85 42.1667 218.1 42C218.183 42 218.35 42 218.6 42C218.85 42 219.267 42 219.85 42C220.433 42 220.892 42 221.225 42C222.308 41.9167 223.725 42 225.475 42.25C225.642 42.25 225.975 42.25 226.475 42.25C227.475 42.25 228.225 42.2917 228.725 42.375C229.058 42.375 230.017 42.4583 231.6 42.625C231.767 42.7083 231.892 42.7083 231.975 42.625C232.225 42.625 232.35 42.5417 232.35 42.375C232.35 42.125 232.35 41.9167 232.35 41.75C232.267 41.25 232.225 40.5833 232.225 39.75C232.225 38.75 232.183 36.9583 232.1 34.375C232.017 33.625 231.933 31.5833 231.85 28.25C231.85 26 231.85 23.6667 231.85 21.25C231.85 21 231.85 20.5833 231.85 20C231.933 19.4167 231.975 18.9583 231.975 18.625C231.892 18.2083 231.808 17.875 231.725 17.625C231.725 17.4583 231.683 17.1667 231.6 16.75C231.6 16.5 231.6 16.2083 231.6 15.875C231.517 15.4583 231.517 15.1667 231.6 15C231.683 14.25 231.683 13.75 231.6 13.5C231.6 13.4167 231.642 13.2917 231.725 13.125C231.808 12.875 231.975 12.7917 232.225 12.875C232.308 12.875 232.433 12.9167 232.6 13C233.017 13.1667 233.475 13.1667 233.975 13C234.225 12.9167 234.517 12.9583 234.85 13.125C235.1 13.2083 235.308 13.2917 235.475 13.375C236.225 13.7917 237.058 14.1667 237.975 14.5C238.225 14.6667 238.642 14.9167 239.225 15.25C239.808 15.5 240.225 15.6667 240.475 15.75C241.392 16.1667 242.392 16.5833 243.475 17C243.808 17.1667 244.017 17.4167 244.1 17.75C244.183 18.1667 244.308 18.5417 244.475 18.875C244.642 19.125 244.6 19.375 244.35 19.625C244.183 19.7917 244.058 19.9167 243.975 20C242.475 20.9167 241.517 21.5 241.1 21.75C240.767 22 240.6 22.2917 240.6 22.625C240.683 22.7083 240.725 23.2083 240.725 24.125C240.808 26.4583 240.85 27.8333 240.85 28.25C240.85 28.6667 240.808 29.2917 240.725 30.125C240.725 30.9583 240.725 31.5417 240.725 31.875C240.725 31.9583 240.725 32.0417 240.725 32.125C240.725 32.875 240.683 33.9583 240.6 35.375C240.6 36.7083 240.6 37.4583 240.6 37.625C240.6 38.2083 240.558 39 240.475 40C240.475 40.9167 240.475 41.5 240.475 41.75C240.475 41.8333 240.475 41.9167 240.475 42C240.475 42.3333 240.475 42.5417 240.475 42.625C240.558 42.625 240.767 42.625 241.1 42.625C242.933 42.7083 244.433 42.75 245.6 42.75C245.767 42.75 246.058 42.75 246.475 42.75C246.975 42.8333 247.392 42.6667 247.725 42.25C247.808 42.0833 247.892 41.9167 247.975 41.75C248.892 39.9167 249.433 38.7917 249.6 38.375C249.85 37.7917 250.183 37.25 250.6 36.75C250.85 36.4167 251.142 36.3333 251.475 36.5C251.975 36.75 252.642 36.8333 253.475 36.75C254.058 36.6667 254.433 36.8333 254.6 37.25C255.1 38.3333 255.475 39.2083 255.725 39.875C256.308 41.7083 256.808 43 257.225 43.75C257.308 43.9167 257.35 44.0417 257.35 44.125C257.517 44.7083 257.725 45.25 257.975 45.75C257.975 45.75 257.975 45.8333 257.975 46C257.975 46.25 257.892 46.375 257.725 46.375C257.558 46.375 257.392 46.375 257.225 46.375C256.892 46.375 256.6 46.4583 256.35 46.625C256.183 46.7083 255.892 46.75 255.475 46.75C255.058 46.75 254.392 46.7083 253.475 46.625C252.558 46.5417 251.85 46.4583 251.35 46.375C251.183 46.375 250.225 46.25 248.475 46C248.475 46 248.392 46 248.225 46C248.142 46 248.058 46 247.975 46C247.558 46 246.933 46 246.1 46C245.267 45.9167 244.6 45.875 244.1 45.875C244.1 45.875 243.142 45.875 241.225 45.875C240.975 45.875 240.808 45.875 240.725 45.875C240.475 45.875 240.35 46 240.35 46.25C240.35 46.3333 240.35 46.5417 240.35 46.875C240.267 49.4583 240.225 50.8333 240.225 51C240.225 51.5833 240.225 52.2083 240.225 52.875C240.225 53.4583 240.183 54.125 240.1 54.875C240.1 55.625 240.1 56.2083 240.1 56.625ZM222.725 87.5C222.808 87.5 222.85 87.5417 222.85 87.625C222.933 87.7083 223.017 87.8333 223.1 88C223.6 88.5 223.892 88.75 223.975 88.75C224.058 88.75 224.267 88.4583 224.6 87.875C224.6 87.7917 224.642 87.7083 224.725 87.625C224.808 87.5417 224.85 87.5 224.85 87.5C224.933 87.4167 224.975 87.3333 224.975 87.25C224.975 87.0833 224.933 87 224.85 87C224.1 87 223.6 87.0833 223.35 87.25C223.35 87.25 223.142 87.3333 222.725 87.5ZM236.225 34.5C236.308 34.5 236.35 34.5 236.35 34.5C236.35 34.25 236.35 33.875 236.35 33.375C236.35 32.7917 236.35 32.3333 236.35 32C236.35 32 236.35 31.7083 236.35 31.125C236.35 30.4583 236.392 29.9583 236.475 29.625C236.475 29.4583 236.433 29.25 236.35 29C236.35 28.9167 236.308 28.875 236.225 28.875C236.142 28.875 236.1 28.9167 236.1 29C236.1 29.6667 236.1 30.0833 236.1 30.25C236.1 30.5 236.142 31.25 236.225 32.5C236.225 32.9167 236.225 33.5833 236.225 34.5ZM237.35 17.5C237.683 18.25 237.85 18.6667 237.85 18.75C237.933 18.9167 238.058 18.9583 238.225 18.875C238.392 18.7083 238.558 18.5417 238.725 18.375C238.808 18.2917 238.808 18.2083 238.725 18.125C238.642 18.0417 238.517 17.9583 238.35 17.875C238.183 17.7917 238.017 17.7083 237.85 17.625C237.683 17.5417 237.517 17.5 237.35 17.5ZM253.35 43.375C253.267 43.0417 253.142 42.7917 252.975 42.625C252.892 42.625 252.85 42.6667 252.85 42.75C252.6 43 252.517 43.2083 252.6 43.375C252.6 43.4583 252.767 43.5 253.1 43.5C253.183 43.5 253.267 43.4583 253.35 43.375ZM232.1 86C231.35 86.5 230.892 87 230.725 87.5C231.392 86.8333 231.85 86.3333 232.1 86ZM292.725 81.875C292.725 81.875 292.683 81.875 292.6 81.875C292.517 81.875 292.475 81.875 292.475 81.875C291.225 81.875 290.058 81.9583 288.975 82.125C288.058 82.375 286.975 82.5 285.725 82.5C285.558 82.5 285.142 82.5 284.475 82.5C283.808 82.5 283.35 82.5 283.1 82.5C282.183 82.5 280.808 82.5833 278.975 82.75C278.808 82.75 278.517 82.75 278.1 82.75C277.683 82.75 277.35 82.7917 277.1 82.875C276.85 82.875 276.475 82.9167 275.975 83C275.558 83 275.267 83.0417 275.1 83.125C274.6 83.125 274.142 83.125 273.725 83.125C273.558 83.125 273.392 83.1667 273.225 83.25C272.225 83.4167 270.767 83.4167 268.85 83.25C266.183 83.0833 264.517 83 263.85 83C263.683 83.0833 263.1 83.1667 262.1 83.25C261.183 83.4167 260.517 83.5 260.1 83.5C259.683 83.5 259.058 83.5417 258.225 83.625C257.392 83.7083 256.767 83.75 256.35 83.75C255.85 83.75 255.475 83.9167 255.225 84.25C255.058 84.5 254.725 84.9167 254.225 85.5C253.808 86 253.475 86.375 253.225 86.625C253.058 86.875 252.85 86.9583 252.6 86.875C252.35 86.7083 252.142 86.75 251.975 87C251.892 87.0833 251.767 87.1667 251.6 87.25C251.517 87.3333 251.392 87.3333 251.225 87.25C250.808 87 250.308 86.6667 249.725 86.25C249.642 86.25 249.558 86.1667 249.475 86C249.142 85.4167 248.892 84.9583 248.725 84.625C248.475 84.125 248.267 83.625 248.1 83.125C247.767 82.125 247.517 81.5 247.35 81.25C247.35 81.1667 247.308 81.0833 247.225 81C247.225 80.8333 247.308 80.75 247.475 80.75C247.558 80.6667 247.642 80.6667 247.725 80.75C247.975 80.8333 248.6 80.8333 249.6 80.75C249.933 80.75 250.392 80.75 250.975 80.75C251.642 80.6667 252.1 80.625 252.35 80.625C252.517 80.625 253.517 80.5417 255.35 80.375C255.35 80.375 255.392 80.375 255.475 80.375C255.558 80.375 255.642 80.375 255.725 80.375C257.475 80.2917 258.392 80.25 258.475 80.25C258.642 80.1667 259.475 80.0417 260.975 79.875C260.975 79.875 261.017 79.875 261.1 79.875C261.183 79.875 261.267 79.875 261.35 79.875C263.183 79.7917 264.6 79.7917 265.6 79.875C267.6 80.0417 269.017 80.0833 269.85 80C269.85 80 270.1 80 270.6 80C271.183 79.8333 271.475 79.75 271.475 79.75C271.892 79.75 272.308 79.75 272.725 79.75C273.142 79.6667 273.6 79.625 274.1 79.625C274.6 79.5417 275.017 79.4583 275.35 79.375C275.6 79.375 275.767 79.375 275.85 79.375C276.35 79.375 277.517 79.2917 279.35 79.125C279.517 79.125 280.017 79.125 280.85 79.125C281.017 79.125 281.35 79.125 281.85 79.125C282.433 79.125 282.808 79.125 282.975 79.125C283.058 79.125 283.225 79.0833 283.475 79C283.725 79 283.892 78.9167 283.975 78.75C284.142 78.5 284.392 78.0417 284.725 77.375C285.142 76.7083 285.475 76.1667 285.725 75.75C285.975 75.25 286.183 74.75 286.35 74.25C286.35 74.1667 286.6 73.5417 287.1 72.375C287.767 71.125 288.1 70.3333 288.1 70C288.183 69.5 288.433 69.4167 288.85 69.75C289.1 70 289.683 70.125 290.6 70.125C290.683 70.125 290.85 70.0833 291.1 70C291.767 69.8333 292.183 70.0417 292.35 70.625C292.35 70.7083 292.35 70.7917 292.35 70.875C292.433 70.875 292.475 70.9167 292.475 71C292.642 71.6667 292.892 72.2083 293.225 72.625C293.392 72.9583 293.725 73.5 294.225 74.25C294.725 75.1667 295.1 75.7917 295.35 76.125C295.433 76.2917 295.517 76.5417 295.6 76.875C295.767 77.4583 296.017 77.9583 296.35 78.375C296.6 78.7917 296.725 79.1667 296.725 79.5C296.725 79.6667 296.85 80 297.1 80.5C297.267 80.9167 297.308 81.2083 297.225 81.375C297.142 81.4583 296.892 81.5 296.475 81.5C296.142 81.4167 295.85 81.5 295.6 81.75C295.433 81.8333 295.142 81.875 294.725 81.875C294.558 81.875 293.892 81.875 292.725 81.875Z" fill="#FFAA00"/>
</svg>
